<?xml version="1.0" encoding="UTF-8"?>
<!--
  MORE HUMAN THAN HUMAN — T-Shirt Print Design
  AI Conference • February 28, 2026 • Geekdom • San Antonio

  Print Specs:
  - Canvas: 14" × 15.3" (1008 × 1100 pt @ 72dpi)
  - Garment: Black shirt (no background fill needed)
  - Colors: White (#FFFFFF), Gold (#FBBF24), Orange (#FF9900), Cyan (#00F2FF),
            DevSA brand (#EF426F, #FF8200, #00B2A9, #eee), Geekdom inverted white
  - Minimum stroke: 1pt for screen print compatibility
  - All vector artwork — no raster images
-->
<svg xmlns="http://www.w3.org/2000/svg" viewBox="0 0 1008 1100" width="1008" height="1100">
  <defs>
    <linearGradient id="aztecGradient" x1="0%" y1="0%" x2="100%" y2="0%">
      <stop offset="0%" stop-color="#FF9900"/>
      <stop offset="50%" stop-color="#00F2FF"/>
      <stop offset="100%" stop-color="#FF9900"/>
    </linearGradient>
    <linearGradient id="goldGradient" x1="0%" y1="0%" x2="100%" y2="0%">
      <stop offset="0%" stop-color="#FBBF24"/>
      <stop offset="50%" stop-color="#FF9900"/>
      <stop offset="100%" stop-color="#FBBF24"/>
    </linearGradient>
  </defs>

  <!-- ============================================ -->
  <!-- TOP: Aztec Corner Decorations                -->
  <!-- ============================================ -->
  <g transform="translate(80, 50)">
    <rect width="8" height="64" fill="#FFFFFF" opacity="0.3"/>
    <rect width="64" height="8" fill="#FFFFFF" opacity="0.3"/>
    <rect x="16" y="16" width="4" height="28" fill="#FF9900" opacity="0.7"/>
    <rect x="16" y="16" width="28" height="4" fill="#FF9900" opacity="0.7"/>
    <rect x="30" y="30" width="3" height="16" fill="#00F2FF" opacity="0.5"/>
    <rect x="30" y="30" width="16" height="3" fill="#00F2FF" opacity="0.5"/>
  </g>
  <g transform="translate(928, 50) scale(-1,1)">
    <rect width="8" height="64" fill="#FFFFFF" opacity="0.3"/>
    <rect width="64" height="8" fill="#FFFFFF" opacity="0.3"/>
    <rect x="16" y="16" width="4" height="28" fill="#FF9900" opacity="0.7"/>
    <rect x="16" y="16" width="28" height="4" fill="#FF9900" opacity="0.7"/>
    <rect x="30" y="30" width="3" height="16" fill="#00F2FF" opacity="0.5"/>
    <rect x="30" y="30" width="16" height="3" fill="#00F2FF" opacity="0.5"/>
  </g>

  <!-- ============================================ -->
  <!-- MONO LABEL (outlined)                      -->
  <!-- ============================================ -->
  <!-- MONO LABEL -->
  <path d="M1.46 0L0.26 0L2.55 -7.81L4.05 -7.81L6.34 0L5.14 0L4.58 -2.03L2.02 -2.03L1.46 0ZM4.28 -3.1L3.3 -6.61L2.32 -3.1L4.28 -3.1ZM16.19 0L11.31 0L11.31 -1.09L13.18 -1.09L13.18 -6.72L11.31 -6.72L11.31 -7.81L16.19 -7.81L16.19 -6.72L14.32 -6.72L14.32 -1.09L16.19 -1.09L16.19 0ZM34.68 0.18L34.68 0.18Q33.74 0.18 33.08 -0.32Q32.43 -0.81 32.09 -1.73Q31.75 -2.64 31.75 -3.89L31.75 -3.89Q31.75 -5.16 32.09 -6.08Q32.43 -7 33.08 -7.49Q33.74 -7.99 34.68 -7.99L34.68 -7.99Q35.75 -7.99 36.48 -7.29Q37.2 -6.59 37.44 -5.31L37.44 -5.31L36.23 -5.25Q36.07 -6.06 35.66 -6.48Q35.24 -6.91 34.68 -6.91L34.68 -6.91Q33.84 -6.91 33.39 -6.12Q32.95 -5.33 32.95 -3.89L32.95 -3.89Q32.95 -2.45 33.39 -1.68Q33.84 -0.9 34.68 -0.9L34.68 -0.9Q35.29 -0.9 35.72 -1.36Q36.15 -1.83 36.29 -2.72L36.29 -2.72L37.49 -2.66Q37.29 -1.32 36.55 -0.57Q35.81 0.18 34.68 0.18ZM45.1 0.18L45.1 0.18Q43.7 0.18 42.95 -0.88Q42.2 -1.94 42.2 -3.89L42.2 -3.89Q42.2 -5.86 42.95 -6.92Q43.7 -7.99 45.1 -7.99L45.1 -7.99Q46.5 -7.99 47.25 -6.92Q48 -5.86 48 -3.89L48 -3.89Q48 -1.94 47.25 -0.88Q46.5 0.18 45.1 0.18ZM45.1 -0.9L45.1 -0.9Q45.93 -0.9 46.37 -1.66Q46.81 -2.41 46.81 -3.89L46.81 -3.89Q46.81 -5.38 46.37 -6.14Q45.93 -6.91 45.1 -6.91L45.1 -6.91Q44.28 -6.91 43.84 -6.14Q43.4 -5.38 43.4 -3.89L43.4 -3.89Q43.4 -2.41 43.84 -1.66Q44.28 -0.9 45.1 -0.9ZM54.13 0L53 0L53 -7.81L54.41 -7.81L56.97 -1.64L56.97 -7.81L58.1 -7.81L58.1 0L56.69 0L54.13 -6.17L54.13 0ZM64.93 0L63.78 0L63.78 -7.81L68.66 -7.81L68.66 -6.74L64.93 -6.74L64.93 -4.34L68.46 -4.34L68.46 -3.29L64.93 -3.29L64.93 0ZM79 0L74.12 0L74.12 -7.81L78.91 -7.81L78.91 -6.72L75.27 -6.72L75.27 -4.44L78.78 -4.44L78.78 -3.39L75.27 -3.39L75.27 -1.09L79 -1.09L79 0ZM85.49 0L84.34 0L84.34 -7.81L86.77 -7.81Q88 -7.81 88.71 -7.18Q89.43 -6.56 89.43 -5.48L89.43 -5.48Q89.43 -4.77 89.04 -4.28Q88.65 -3.79 88.11 -3.63L88.11 -3.63Q88.68 -3.52 88.97 -3.18Q89.27 -2.85 89.32 -2.22L89.32 -2.22L89.52 0L88.36 0L88.19 -2Q88.14 -2.58 87.86 -2.82Q87.58 -3.05 86.86 -3.05L86.86 -3.05L85.49 -3.05L85.49 0ZM85.49 -6.72L85.49 -4.12L86.75 -4.12Q87.47 -4.12 87.86 -4.47Q88.24 -4.81 88.24 -5.42L88.24 -5.42Q88.24 -6.05 87.86 -6.39Q87.47 -6.72 86.75 -6.72L86.75 -6.72L85.49 -6.72ZM99.9 0L95.02 0L95.02 -7.81L99.81 -7.81L99.81 -6.72L96.17 -6.72L96.17 -4.44L99.68 -4.44L99.68 -3.39L96.17 -3.39L96.17 -1.09L99.9 -1.09L99.9 0ZM106.38 0L105.25 0L105.25 -7.81L106.66 -7.81L109.22 -1.64L109.22 -7.81L110.35 -7.81L110.35 0L108.94 0L106.38 -6.17L106.38 0ZM118.28 0.18L118.28 0.18Q117.34 0.18 116.68 -0.32Q116.03 -0.81 115.69 -1.73Q115.35 -2.64 115.35 -3.89L115.35 -3.89Q115.35 -5.16 115.69 -6.08Q116.03 -7 116.68 -7.49Q117.34 -7.99 118.28 -7.99L118.28 -7.99Q119.35 -7.99 120.08 -7.29Q120.8 -6.59 121.04 -5.31L121.04 -5.31L119.83 -5.25Q119.67 -6.06 119.26 -6.48Q118.84 -6.91 118.28 -6.91L118.28 -6.91Q117.44 -6.91 116.99 -6.12Q116.54 -5.33 116.54 -3.89L116.54 -3.89Q116.54 -2.45 116.99 -1.68Q117.44 -0.9 118.28 -0.9L118.28 -0.9Q118.89 -0.9 119.32 -1.36Q119.75 -1.83 119.89 -2.72L119.89 -2.72L121.09 -2.66Q120.89 -1.32 120.15 -0.57Q119.4 0.18 118.28 0.18ZM131.25 0L126.37 0L126.37 -7.81L131.16 -7.81L131.16 -6.72L127.52 -6.72L127.52 -4.44L131.03 -4.44L131.03 -3.39L127.52 -3.39L127.52 -1.09L131.25 -1.09L131.25 0ZM149.6 -2.1L149.6 -2.1Q149.25 -2.1 148.95 -2.27Q148.65 -2.44 148.48 -2.74Q148.3 -3.04 148.3 -3.39L148.3 -3.39Q148.3 -3.75 148.48 -4.04Q148.65 -4.33 148.95 -4.5Q149.25 -4.67 149.6 -4.67L149.6 -4.67Q149.96 -4.67 150.25 -4.5Q150.55 -4.33 150.72 -4.04Q150.9 -3.75 150.9 -3.39L150.9 -3.39Q150.9 -3.04 150.72 -2.74Q150.55 -2.44 150.25 -2.27Q149.96 -2.1 149.6 -2.1ZM169.43 0L168.28 0L168.28 -7.81L173.16 -7.81L173.16 -6.74L169.43 -6.74L169.43 -4.34L172.96 -4.34L172.96 -3.29L169.43 -3.29L169.43 0ZM183.5 0L178.62 0L178.62 -7.81L183.41 -7.81L183.41 -6.72L179.77 -6.72L179.77 -4.44L183.28 -4.44L183.28 -3.39L179.77 -3.39L179.77 -1.09L183.5 -1.09L183.5 0ZM191.54 0L189.01 0L189.01 -7.81L191.28 -7.81Q192.57 -7.81 193.24 -7.25Q193.91 -6.69 193.91 -5.69L193.91 -5.69Q193.91 -5.05 193.52 -4.6Q193.14 -4.15 192.46 -4.03L192.46 -4.03Q193.32 -3.92 193.78 -3.42Q194.24 -2.93 194.24 -2.17L194.24 -2.17Q194.24 -1.13 193.53 -0.57Q192.82 0 191.54 0L191.54 0ZM190.17 -6.73L190.17 -4.5L191.3 -4.5Q192.03 -4.5 192.37 -4.79Q192.71 -5.08 192.71 -5.61L192.71 -5.61Q192.71 -6.15 192.37 -6.44Q192.03 -6.73 191.3 -6.73L191.3 -6.73L190.17 -6.73ZM190.17 -3.43L190.17 -1.08L191.55 -1.08Q192.3 -1.08 192.67 -1.38Q193.04 -1.68 193.04 -2.22L193.04 -2.22Q193.04 -2.79 192.66 -3.11Q192.28 -3.43 191.55 -3.43L191.55 -3.43L190.17 -3.43ZM200.44 0L199.29 0L199.29 -7.81L201.72 -7.81Q202.95 -7.81 203.66 -7.18Q204.38 -6.56 204.38 -5.48L204.38 -5.48Q204.38 -4.77 203.99 -4.28Q203.6 -3.79 203.06 -3.63L203.06 -3.63Q203.63 -3.52 203.92 -3.18Q204.21 -2.85 204.27 -2.22L204.27 -2.22L204.47 0L203.31 0L203.14 -2Q203.09 -2.58 202.81 -2.82Q202.53 -3.05 201.81 -3.05L201.81 -3.05L200.44 -3.05L200.44 0ZM200.44 -6.72L200.44 -4.12L201.7 -4.12Q202.42 -4.12 202.81 -4.47Q203.19 -4.81 203.19 -5.42L203.19 -5.42Q203.19 -6.05 202.81 -6.39Q202.42 -6.72 201.7 -6.72L201.7 -6.72L200.44 -6.72ZM212.3 0.18L212.3 0.18Q211.06 0.18 210.35 -0.59Q209.64 -1.35 209.64 -2.72L209.64 -2.72L209.64 -7.81L210.79 -7.81L210.79 -2.67Q210.79 -1.81 211.18 -1.36Q211.56 -0.9 212.3 -0.9L212.3 -0.9Q213.04 -0.9 213.42 -1.36Q213.81 -1.81 213.81 -2.67L213.81 -2.67L213.81 -7.81L214.96 -7.81L214.96 -2.72Q214.96 -1.35 214.25 -0.59Q213.54 0.18 212.3 0.18ZM220.91 0L219.71 0L222 -7.81L223.5 -7.81L225.79 0L224.59 0L224.03 -2.03L221.47 -2.03L220.91 0ZM223.73 -3.1L222.75 -6.61L221.77 -3.1L223.73 -3.1ZM231.79 0L230.64 0L230.64 -7.81L233.07 -7.81Q234.3 -7.81 235.01 -7.18Q235.73 -6.56 235.73 -5.48L235.73 -5.48Q235.73 -4.77 235.34 -4.28Q234.95 -3.79 234.41 -3.63L234.41 -3.63Q234.98 -3.52 235.27 -3.18Q235.56 -2.85 235.62 -2.22L235.62 -2.22L235.82 0L234.66 0L234.49 -2Q234.44 -2.58 234.16 -2.82Q233.88 -3.05 233.16 -3.05L233.16 -3.05L231.79 -3.05L231.79 0ZM231.79 -6.72L231.79 -4.12L233.05 -4.12Q233.77 -4.12 234.16 -4.47Q234.54 -4.81 234.54 -5.42L234.54 -5.42Q234.54 -6.05 234.16 -6.39Q233.77 -6.72 233.05 -6.72L233.05 -6.72L231.79 -6.72ZM244.23 0L243.08 0L243.08 -3.21L240.76 -7.81L242.03 -7.81L243.65 -4.4L245.27 -7.81L246.54 -7.81L244.23 -3.21L244.23 0ZM267.32 0L261.78 0Q261.78 -0.87 262.04 -1.55Q262.29 -2.23 262.93 -2.83Q263.57 -3.43 264.71 -4.04L264.71 -4.04Q265.2 -4.29 265.51 -4.52Q265.83 -4.74 265.97 -5.01Q266.11 -5.28 266.11 -5.65L266.11 -5.65Q266.11 -6.21 265.76 -6.56Q265.41 -6.91 264.73 -6.91L264.73 -6.91Q263.98 -6.91 263.55 -6.51Q263.13 -6.12 263.02 -5.38L263.02 -5.38L261.82 -5.46Q261.94 -6.61 262.69 -7.3Q263.44 -7.99 264.73 -7.99L264.73 -7.99Q265.97 -7.99 266.64 -7.35Q267.31 -6.72 267.31 -5.7L267.31 -5.7Q267.31 -5.09 267.11 -4.66Q266.91 -4.22 266.45 -3.84Q265.99 -3.46 265.19 -3.04L265.19 -3.04Q264.18 -2.5 263.68 -1.99Q263.19 -1.48 263.15 -1.09L263.15 -1.09L267.32 -1.09L267.32 0ZM275 0.18L275 0.18Q274.2 0.18 273.56 -0.09Q272.93 -0.35 272.57 -0.87Q272.21 -1.39 272.21 -2.14L272.21 -2.14Q272.21 -2.9 272.62 -3.43Q273.03 -3.96 273.73 -4.2L273.73 -4.2Q273.2 -4.41 272.88 -4.81Q272.56 -5.21 272.56 -5.84L272.56 -5.84Q272.56 -6.46 272.87 -6.94Q273.18 -7.42 273.73 -7.71Q274.28 -7.99 275 -7.99L275 -7.99Q275.71 -7.99 276.26 -7.71Q276.81 -7.42 277.13 -6.94Q277.44 -6.46 277.44 -5.84L277.44 -5.84Q277.44 -5.21 277.12 -4.81Q276.8 -4.41 276.26 -4.2L276.26 -4.2Q276.97 -3.96 277.38 -3.43Q277.79 -2.9 277.79 -2.14L277.79 -2.14Q277.79 -1.39 277.43 -0.87Q277.07 -0.35 276.44 -0.09Q275.8 0.18 275 0.18ZM275 -4.66L275 -4.66Q275.56 -4.66 275.9 -4.95Q276.24 -5.24 276.24 -5.81L276.24 -5.81Q276.24 -6.31 275.91 -6.61Q275.57 -6.91 275 -6.91L275 -6.91Q274.43 -6.91 274.09 -6.61Q273.76 -6.31 273.76 -5.81L273.76 -5.81Q273.76 -5.24 274.1 -4.95Q274.44 -4.66 275 -4.66ZM275 -0.9L275 -0.9Q275.68 -0.9 276.14 -1.22Q276.59 -1.54 276.59 -2.23L276.59 -2.23Q276.59 -2.87 276.19 -3.25Q275.78 -3.63 275 -3.63L275 -3.63Q274.22 -3.63 273.81 -3.25Q273.4 -2.87 273.4 -2.23L273.4 -2.23Q273.4 -1.54 273.86 -1.22Q274.32 -0.9 275 -0.9ZM285.49 1.78L284.75 1.78L285.36 0L284.72 0L284.72 -1.45L286.18 -1.45L286.18 -0.12L285.49 1.78ZM309.12 0L303.58 0Q303.58 -0.87 303.84 -1.55Q304.1 -2.23 304.73 -2.83Q305.37 -3.43 306.52 -4.04L306.52 -4.04Q307 -4.29 307.31 -4.52Q307.63 -4.74 307.77 -5.01Q307.91 -5.28 307.91 -5.65L307.91 -5.65Q307.91 -6.21 307.56 -6.56Q307.21 -6.91 306.53 -6.91L306.53 -6.91Q305.78 -6.91 305.35 -6.51Q304.93 -6.12 304.82 -5.38L304.82 -5.38L303.62 -5.46Q303.74 -6.61 304.49 -7.3Q305.24 -7.99 306.53 -7.99L306.53 -7.99Q307.77 -7.99 308.44 -7.35Q309.11 -6.72 309.11 -5.7L309.11 -5.7Q309.11 -5.09 308.91 -4.66Q308.72 -4.22 308.25 -3.84Q307.79 -3.46 306.99 -3.04L306.99 -3.04Q305.98 -2.5 305.48 -1.99Q304.99 -1.48 304.95 -1.09L304.95 -1.09L309.12 -1.09L309.12 0ZM316.8 0.18L316.8 0.18Q315.94 0.18 315.32 -0.32Q314.7 -0.81 314.36 -1.73Q314.03 -2.64 314.03 -3.89L314.03 -3.89Q314.03 -5.16 314.36 -6.08Q314.7 -7 315.32 -7.49Q315.94 -7.99 316.8 -7.99L316.8 -7.99Q317.66 -7.99 318.28 -7.49Q318.9 -7 319.24 -6.08Q319.57 -5.16 319.57 -3.89L319.57 -3.89Q319.57 -2.64 319.24 -1.73Q318.9 -0.81 318.28 -0.32Q317.66 0.18 316.8 0.18ZM315.23 -3.89L315.23 -3.89Q315.23 -2.91 315.44 -2.22L315.44 -2.22L317.72 -6.46Q317.35 -6.91 316.8 -6.91L316.8 -6.91Q316.06 -6.91 315.65 -6.12Q315.23 -5.32 315.23 -3.89ZM316.8 -0.9L316.8 -0.9Q317.54 -0.9 317.96 -1.69Q318.37 -2.49 318.37 -3.89L318.37 -3.89Q318.37 -4.88 318.16 -5.58L318.16 -5.58L315.87 -1.35Q316.25 -0.9 316.8 -0.9ZM330.02 0L324.48 0Q324.48 -0.87 324.74 -1.55Q325 -2.23 325.63 -2.83Q326.27 -3.43 327.42 -4.04L327.42 -4.04Q327.9 -4.29 328.21 -4.52Q328.53 -4.74 328.67 -5.01Q328.81 -5.28 328.81 -5.65L328.81 -5.65Q328.81 -6.21 328.46 -6.56Q328.11 -6.91 327.43 -6.91L327.43 -6.91Q326.68 -6.91 326.25 -6.51Q325.83 -6.12 325.72 -5.38L325.72 -5.38L324.52 -5.46Q324.64 -6.61 325.39 -7.3Q326.14 -7.99 327.43 -7.99L327.43 -7.99Q328.67 -7.99 329.34 -7.35Q330.01 -6.72 330.01 -5.7L330.01 -5.7Q330.01 -5.09 329.81 -4.66Q329.62 -4.22 329.15 -3.84Q328.69 -3.46 327.89 -3.04L327.89 -3.04Q326.88 -2.5 326.38 -1.99Q325.89 -1.48 325.85 -1.09L325.85 -1.09L330.02 -1.09L330.02 0ZM337.72 0.18L337.72 0.18Q336.37 0.18 335.64 -0.73Q334.91 -1.64 334.91 -3.32L334.91 -3.32Q334.91 -4.29 335.07 -5.14Q335.24 -5.98 335.6 -6.62Q335.96 -7.26 336.56 -7.62Q337.16 -7.99 338.02 -7.99L338.02 -7.99Q339.1 -7.99 339.68 -7.46Q340.26 -6.93 340.48 -6.1L340.48 -6.1L339.3 -6.01Q339.19 -6.41 338.89 -6.66Q338.6 -6.91 338.02 -6.91L338.02 -6.91Q337.23 -6.91 336.73 -6.3Q336.24 -5.7 336.12 -4.44L336.12 -4.44L336.12 -4.42Q336.4 -4.78 336.86 -5.02Q337.33 -5.26 337.94 -5.26L337.94 -5.26Q338.72 -5.26 339.3 -4.93Q339.87 -4.6 340.18 -4Q340.49 -3.41 340.49 -2.62L340.49 -2.62Q340.49 -1.75 340.15 -1.13Q339.8 -0.51 339.17 -0.16Q338.55 0.18 337.72 0.18ZM337.72 -0.91L337.72 -0.91Q338.45 -0.91 338.87 -1.35Q339.3 -1.79 339.3 -2.6L339.3 -2.6Q339.3 -3.34 338.89 -3.78Q338.49 -4.21 337.81 -4.21L337.81 -4.21Q337.07 -4.21 336.6 -3.77Q336.13 -3.33 336.13 -2.6L336.13 -2.6Q336.13 -1.87 336.56 -1.39Q336.99 -0.91 337.72 -0.91ZM358.6 -2.1L358.6 -2.1Q358.25 -2.1 357.95 -2.27Q357.65 -2.44 357.48 -2.74Q357.3 -3.04 357.3 -3.39L357.3 -3.39Q357.3 -3.75 357.48 -4.04Q357.65 -4.33 357.95 -4.5Q358.25 -4.67 358.6 -4.67L358.6 -4.67Q358.96 -4.67 359.25 -4.5Q359.55 -4.33 359.72 -4.04Q359.9 -3.75 359.9 -3.39L359.9 -3.39Q359.9 -3.04 359.72 -2.74Q359.55 -2.44 359.25 -2.27Q358.96 -2.1 358.6 -2.1ZM379.49 0.18L379.49 0.18Q378.64 0.18 377.99 -0.29Q377.34 -0.76 376.97 -1.66Q376.6 -2.56 376.6 -3.89L376.6 -3.89Q376.6 -5.16 376.95 -6.08Q377.3 -7 377.95 -7.49Q378.61 -7.99 379.52 -7.99L379.52 -7.99Q380.62 -7.99 381.34 -7.28Q382.05 -6.58 382.31 -5.4L382.31 -5.4L381.11 -5.32Q380.94 -6.04 380.55 -6.47Q380.16 -6.9 379.53 -6.9L379.53 -6.9Q378.7 -6.9 378.25 -6.12Q377.8 -5.33 377.8 -3.89L377.8 -3.89Q377.8 -2.45 378.26 -1.68Q378.73 -0.91 379.59 -0.91L379.59 -0.91Q380.35 -0.91 380.78 -1.48Q381.22 -2.05 381.25 -2.98L381.25 -2.98L379.53 -2.98L379.53 -3.98L382.32 -3.98L382.32 0L381.38 0L381.35 -1Q381.1 -0.47 380.64 -0.15Q380.18 0.18 379.49 0.18ZM392.5 0L387.62 0L387.62 -7.81L392.41 -7.81L392.41 -6.72L388.77 -6.72L388.77 -4.44L392.28 -4.44L392.28 -3.39L388.77 -3.39L388.77 -1.09L392.5 -1.09L392.5 0ZM402.95 0L398.07 0L398.07 -7.81L402.86 -7.81L402.86 -6.72L399.22 -6.72L399.22 -4.44L402.73 -4.44L402.73 -3.39L399.22 -3.39L399.22 -1.09L402.95 -1.09L402.95 0ZM409.32 0L408.17 0L408.17 -7.81L409.32 -7.81L409.32 -4.14L412.25 -7.81L413.64 -7.81L410.85 -4.38L413.73 0L412.38 0L410.12 -3.49L409.32 -2.5L409.32 0ZM420.82 0L418.91 0L418.91 -7.81L420.82 -7.81Q421.85 -7.81 422.61 -7.35Q423.38 -6.9 423.79 -6.02Q424.2 -5.15 424.2 -3.89L424.2 -3.89Q424.2 -2.64 423.79 -1.77Q423.38 -0.9 422.61 -0.45Q421.85 0 420.82 0L420.82 0ZM420.07 -6.72L420.07 -1.09L420.78 -1.09Q421.84 -1.09 422.42 -1.79Q423.01 -2.49 423.01 -3.89L423.01 -3.89Q423.01 -5.3 422.42 -6.01Q421.84 -6.72 420.78 -6.72L420.78 -6.72L420.07 -6.72ZM431.75 0.18L431.75 0.18Q430.35 0.18 429.6 -0.88Q428.85 -1.94 428.85 -3.89L428.85 -3.89Q428.85 -5.86 429.6 -6.92Q430.35 -7.99 431.75 -7.99L431.75 -7.99Q433.15 -7.99 433.9 -6.92Q434.65 -5.86 434.65 -3.89L434.65 -3.89Q434.65 -1.94 433.9 -0.88Q433.15 0.18 431.75 0.18ZM431.75 -0.9L431.75 -0.9Q432.58 -0.9 433.02 -1.66Q433.46 -2.41 433.46 -3.89L433.46 -3.89Q433.46 -5.38 433.02 -6.14Q432.58 -6.91 431.75 -6.91L431.75 -6.91Q430.93 -6.91 430.49 -6.14Q430.05 -5.38 430.05 -3.89L430.05 -3.89Q430.05 -2.41 430.49 -1.66Q430.93 -0.9 431.75 -0.9ZM442.64 -0.95L441.76 -0.95L440.54 -6.03L440.54 0L439.43 0L439.43 -7.81L440.97 -7.81L442.2 -2.76L443.43 -7.81L444.97 -7.81L444.97 0L443.86 0L443.86 -6.03L442.64 -0.95Z" transform="translate(281.25, 100)" fill="#737373"/>

  <!-- ============================================ -->
  <!-- ★ MAIN TITLE — outlined to paths ★         -->
  <!-- ============================================ -->

  <!-- ——— "MORE" ——— -->
  <!-- MORE cyan glitch -->
  <path d="M41.28 0L9.92 0L9.92 -113.6L51.2 -113.6L75.2 -41.44L99.2 -113.6L140.48 -113.6L140.48 0L109.12 0L109.12 -64L86.24 -0.48L64 -0.48L41.28 -64L41.28 0ZM219.52 2.56L219.52 2.56Q201.6 2.56 188.64 -4.64Q175.68 -11.84 168.8 -25.12Q161.92 -38.4 161.92 -56.64L161.92 -56.64Q161.92 -74.88 168.8 -88.24Q175.68 -101.6 188.64 -108.88Q201.6 -116.16 219.52 -116.16L219.52 -116.16Q237.6 -116.16 250.48 -108.88Q263.36 -101.6 270.24 -88.24Q277.12 -74.88 277.12 -56.64L277.12 -56.64Q277.12 -38.4 270.24 -25.12Q263.36 -11.84 250.48 -4.64Q237.6 2.56 219.52 2.56ZM219.52 -22.56L219.52 -22.56Q231.52 -22.56 238.24 -31.44Q244.96 -40.32 244.96 -56.64L244.96 -56.64Q244.96 -72.96 238.24 -82Q231.52 -91.04 219.52 -91.04L219.52 -91.04Q207.52 -91.04 200.8 -82Q194.08 -72.96 194.08 -56.64L194.08 -56.64Q194.08 -40.32 200.8 -31.44Q207.52 -22.56 219.52 -22.56ZM333.44 0L302.08 0L302.08 -113.6L356.32 -113.6Q369.12 -113.6 378.64 -109.44Q388.16 -105.28 393.36 -97.76Q398.56 -90.24 398.56 -80L398.56 -80Q398.56 -69.28 393.2 -61.92Q387.84 -54.56 378.08 -51.52L378.08 -51.52Q387.2 -50.4 391.76 -45.44Q396.32 -40.48 396.96 -32L396.96 -32L399.52 0L367.52 0L365.92 -26.56Q365.6 -32.8 362.56 -35.76Q359.52 -38.72 351.84 -38.72L351.84 -38.72L333.44 -38.72L333.44 0ZM333.44 -88.48L333.44 -63.84L350.56 -63.84Q358.4 -63.84 362.48 -67.12Q366.56 -70.4 366.56 -76.32L366.56 -76.32Q366.56 -88.48 350.56 -88.48L350.56 -88.48L333.44 -88.48ZM509.76 0L424.32 0L424.32 -113.6L508.48 -113.6L508.48 -88.48L455.68 -88.48L455.68 -69.44L506.56 -69.44L506.56 -44.48L455.68 -44.48L455.68 -25.12L509.76 -25.12L509.76 0Z" transform="translate(239.08, 260)" fill="#00F2FF" opacity="0.25"/>
  <!-- MORE orange glitch -->
  <path d="M41.28 0L9.92 0L9.92 -113.6L51.2 -113.6L75.2 -41.44L99.2 -113.6L140.48 -113.6L140.48 0L109.12 0L109.12 -64L86.24 -0.48L64 -0.48L41.28 -64L41.28 0ZM219.52 2.56L219.52 2.56Q201.6 2.56 188.64 -4.64Q175.68 -11.84 168.8 -25.12Q161.92 -38.4 161.92 -56.64L161.92 -56.64Q161.92 -74.88 168.8 -88.24Q175.68 -101.6 188.64 -108.88Q201.6 -116.16 219.52 -116.16L219.52 -116.16Q237.6 -116.16 250.48 -108.88Q263.36 -101.6 270.24 -88.24Q277.12 -74.88 277.12 -56.64L277.12 -56.64Q277.12 -38.4 270.24 -25.12Q263.36 -11.84 250.48 -4.64Q237.6 2.56 219.52 2.56ZM219.52 -22.56L219.52 -22.56Q231.52 -22.56 238.24 -31.44Q244.96 -40.32 244.96 -56.64L244.96 -56.64Q244.96 -72.96 238.24 -82Q231.52 -91.04 219.52 -91.04L219.52 -91.04Q207.52 -91.04 200.8 -82Q194.08 -72.96 194.08 -56.64L194.08 -56.64Q194.08 -40.32 200.8 -31.44Q207.52 -22.56 219.52 -22.56ZM333.44 0L302.08 0L302.08 -113.6L356.32 -113.6Q369.12 -113.6 378.64 -109.44Q388.16 -105.28 393.36 -97.76Q398.56 -90.24 398.56 -80L398.56 -80Q398.56 -69.28 393.2 -61.92Q387.84 -54.56 378.08 -51.52L378.08 -51.52Q387.2 -50.4 391.76 -45.44Q396.32 -40.48 396.96 -32L396.96 -32L399.52 0L367.52 0L365.92 -26.56Q365.6 -32.8 362.56 -35.76Q359.52 -38.72 351.84 -38.72L351.84 -38.72L333.44 -38.72L333.44 0ZM333.44 -88.48L333.44 -63.84L350.56 -63.84Q358.4 -63.84 362.48 -67.12Q366.56 -70.4 366.56 -76.32L366.56 -76.32Q366.56 -88.48 350.56 -88.48L350.56 -88.48L333.44 -88.48ZM509.76 0L424.32 0L424.32 -113.6L508.48 -113.6L508.48 -88.48L455.68 -88.48L455.68 -69.44L506.56 -69.44L506.56 -44.48L455.68 -44.48L455.68 -25.12L509.76 -25.12L509.76 0Z" transform="translate(253.08, 260)" fill="#FF9900" opacity="0.25"/>
  <!-- MORE gold main -->
  <path d="M41.28 0L9.92 0L9.92 -113.6L51.2 -113.6L75.2 -41.44L99.2 -113.6L140.48 -113.6L140.48 0L109.12 0L109.12 -64L86.24 -0.48L64 -0.48L41.28 -64L41.28 0ZM219.52 2.56L219.52 2.56Q201.6 2.56 188.64 -4.64Q175.68 -11.84 168.8 -25.12Q161.92 -38.4 161.92 -56.64L161.92 -56.64Q161.92 -74.88 168.8 -88.24Q175.68 -101.6 188.64 -108.88Q201.6 -116.16 219.52 -116.16L219.52 -116.16Q237.6 -116.16 250.48 -108.88Q263.36 -101.6 270.24 -88.24Q277.12 -74.88 277.12 -56.64L277.12 -56.64Q277.12 -38.4 270.24 -25.12Q263.36 -11.84 250.48 -4.64Q237.6 2.56 219.52 2.56ZM219.52 -22.56L219.52 -22.56Q231.52 -22.56 238.24 -31.44Q244.96 -40.32 244.96 -56.64L244.96 -56.64Q244.96 -72.96 238.24 -82Q231.52 -91.04 219.52 -91.04L219.52 -91.04Q207.52 -91.04 200.8 -82Q194.08 -72.96 194.08 -56.64L194.08 -56.64Q194.08 -40.32 200.8 -31.44Q207.52 -22.56 219.52 -22.56ZM333.44 0L302.08 0L302.08 -113.6L356.32 -113.6Q369.12 -113.6 378.64 -109.44Q388.16 -105.28 393.36 -97.76Q398.56 -90.24 398.56 -80L398.56 -80Q398.56 -69.28 393.2 -61.92Q387.84 -54.56 378.08 -51.52L378.08 -51.52Q387.2 -50.4 391.76 -45.44Q396.32 -40.48 396.96 -32L396.96 -32L399.52 0L367.52 0L365.92 -26.56Q365.6 -32.8 362.56 -35.76Q359.52 -38.72 351.84 -38.72L351.84 -38.72L333.44 -38.72L333.44 0ZM333.44 -88.48L333.44 -63.84L350.56 -63.84Q358.4 -63.84 362.48 -67.12Q366.56 -70.4 366.56 -76.32L366.56 -76.32Q366.56 -88.48 350.56 -88.48L350.56 -88.48L333.44 -88.48ZM509.76 0L424.32 0L424.32 -113.6L508.48 -113.6L508.48 -88.48L455.68 -88.48L455.68 -69.44L506.56 -69.44L506.56 -44.48L455.68 -44.48L455.68 -25.12L509.76 -25.12L509.76 0Z" transform="translate(246.08, 260)" fill="#FBBF24"/>

  <!-- ——— "HUMAN" (gold) ——— -->
  <!-- HUMAN gold cyan glitch -->
  <path d="M41.28 0L9.92 0L9.92 -113.6L41.28 -113.6L41.28 -69.76L75.04 -69.76L75.04 -113.6L106.4 -113.6L106.4 0L75.04 0L75.04 -44.64L41.28 -44.64L41.28 0ZM183.68 2.56L183.68 2.56Q168.64 2.56 157.52 -2.88Q146.4 -8.32 140.32 -18.32Q134.24 -28.32 134.24 -41.92L134.24 -41.92L134.24 -113.6L165.6 -113.6L165.6 -41.92Q165.6 -32.64 170.24 -27.6Q174.88 -22.56 183.68 -22.56L183.68 -22.56Q192.64 -22.56 197.28 -27.6Q201.92 -32.64 201.92 -41.92L201.92 -41.92L201.92 -113.6L233.28 -113.6L233.28 -41.92Q233.28 -28.32 227.2 -18.32Q221.12 -8.32 210 -2.88Q198.88 2.56 183.68 2.56ZM292.48 0L261.12 0L261.12 -113.6L302.4 -113.6L326.4 -41.44L350.4 -113.6L391.68 -113.6L391.68 0L360.32 0L360.32 -64L337.44 -0.48L315.2 -0.48L292.48 -64L292.48 0ZM442.72 0L410.88 0L451.84 -113.6L487.52 -113.6L528.48 0L496.48 0L490.08 -18.72L449.12 -18.72L442.72 0ZM469.76 -79.04L457.44 -43.04L481.92 -43.04L469.76 -79.04ZM575.84 0L544.48 0L544.48 -113.6L576.16 -113.6L614.08 -49.6L614.08 -113.6L645.44 -113.6L645.44 0L613.76 0L575.84 -60.8L575.84 0Z" transform="translate(170.32, 396)" fill="#00F2FF" opacity="0.2"/>
  <!-- HUMAN gold orange glitch -->
  <path d="M41.28 0L9.92 0L9.92 -113.6L41.28 -113.6L41.28 -69.76L75.04 -69.76L75.04 -113.6L106.4 -113.6L106.4 0L75.04 0L75.04 -44.64L41.28 -44.64L41.28 0ZM183.68 2.56L183.68 2.56Q168.64 2.56 157.52 -2.88Q146.4 -8.32 140.32 -18.32Q134.24 -28.32 134.24 -41.92L134.24 -41.92L134.24 -113.6L165.6 -113.6L165.6 -41.92Q165.6 -32.64 170.24 -27.6Q174.88 -22.56 183.68 -22.56L183.68 -22.56Q192.64 -22.56 197.28 -27.6Q201.92 -32.64 201.92 -41.92L201.92 -41.92L201.92 -113.6L233.28 -113.6L233.28 -41.92Q233.28 -28.32 227.2 -18.32Q221.12 -8.32 210 -2.88Q198.88 2.56 183.68 2.56ZM292.48 0L261.12 0L261.12 -113.6L302.4 -113.6L326.4 -41.44L350.4 -113.6L391.68 -113.6L391.68 0L360.32 0L360.32 -64L337.44 -0.48L315.2 -0.48L292.48 -64L292.48 0ZM442.72 0L410.88 0L451.84 -113.6L487.52 -113.6L528.48 0L496.48 0L490.08 -18.72L449.12 -18.72L442.72 0ZM469.76 -79.04L457.44 -43.04L481.92 -43.04L469.76 -79.04ZM575.84 0L544.48 0L544.48 -113.6L576.16 -113.6L614.08 -49.6L614.08 -113.6L645.44 -113.6L645.44 0L613.76 0L575.84 -60.8L575.84 0Z" transform="translate(182.32, 396)" fill="#FF9900" opacity="0.2"/>
  <!-- HUMAN gold shadow -->
  <path d="M41.28 0L9.92 0L9.92 -113.6L41.28 -113.6L41.28 -69.76L75.04 -69.76L75.04 -113.6L106.4 -113.6L106.4 0L75.04 0L75.04 -44.64L41.28 -44.64L41.28 0ZM183.68 2.56L183.68 2.56Q168.64 2.56 157.52 -2.88Q146.4 -8.32 140.32 -18.32Q134.24 -28.32 134.24 -41.92L134.24 -41.92L134.24 -113.6L165.6 -113.6L165.6 -41.92Q165.6 -32.64 170.24 -27.6Q174.88 -22.56 183.68 -22.56L183.68 -22.56Q192.64 -22.56 197.28 -27.6Q201.92 -32.64 201.92 -41.92L201.92 -41.92L201.92 -113.6L233.28 -113.6L233.28 -41.92Q233.28 -28.32 227.2 -18.32Q221.12 -8.32 210 -2.88Q198.88 2.56 183.68 2.56ZM292.48 0L261.12 0L261.12 -113.6L302.4 -113.6L326.4 -41.44L350.4 -113.6L391.68 -113.6L391.68 0L360.32 0L360.32 -64L337.44 -0.48L315.2 -0.48L292.48 -64L292.48 0ZM442.72 0L410.88 0L451.84 -113.6L487.52 -113.6L528.48 0L496.48 0L490.08 -18.72L449.12 -18.72L442.72 0ZM469.76 -79.04L457.44 -43.04L481.92 -43.04L469.76 -79.04ZM575.84 0L544.48 0L544.48 -113.6L576.16 -113.6L614.08 -49.6L614.08 -113.6L645.44 -113.6L645.44 0L613.76 0L575.84 -60.8L575.84 0Z" transform="translate(176.32, 390)" fill="#FBBF24" opacity="0.08"/>
  <!-- HUMAN gold main -->
  <path d="M41.28 0L9.92 0L9.92 -113.6L41.28 -113.6L41.28 -69.76L75.04 -69.76L75.04 -113.6L106.4 -113.6L106.4 0L75.04 0L75.04 -44.64L41.28 -44.64L41.28 0ZM183.68 2.56L183.68 2.56Q168.64 2.56 157.52 -2.88Q146.4 -8.32 140.32 -18.32Q134.24 -28.32 134.24 -41.92L134.24 -41.92L134.24 -113.6L165.6 -113.6L165.6 -41.92Q165.6 -32.64 170.24 -27.6Q174.88 -22.56 183.68 -22.56L183.68 -22.56Q192.64 -22.56 197.28 -27.6Q201.92 -32.64 201.92 -41.92L201.92 -41.92L201.92 -113.6L233.28 -113.6L233.28 -41.92Q233.28 -28.32 227.2 -18.32Q221.12 -8.32 210 -2.88Q198.88 2.56 183.68 2.56ZM292.48 0L261.12 0L261.12 -113.6L302.4 -113.6L326.4 -41.44L350.4 -113.6L391.68 -113.6L391.68 0L360.32 0L360.32 -64L337.44 -0.48L315.2 -0.48L292.48 -64L292.48 0ZM442.72 0L410.88 0L451.84 -113.6L487.52 -113.6L528.48 0L496.48 0L490.08 -18.72L449.12 -18.72L442.72 0ZM469.76 -79.04L457.44 -43.04L481.92 -43.04L469.76 -79.04ZM575.84 0L544.48 0L544.48 -113.6L576.16 -113.6L614.08 -49.6L614.08 -113.6L645.44 -113.6L645.44 0L613.76 0L575.84 -60.8L575.84 0Z" transform="translate(176.32, 396)" fill="#FBBF24"/>

  <!-- ——— "THAN" ——— -->
  <!-- THAN cyan glitch -->
  <path d="M66.24 0L34.72 0L34.72 -88.48L1.6 -88.48L1.6 -113.6L99.36 -113.6L99.36 -88.48L66.24 -88.48L66.24 0ZM148.64 0L117.28 0L117.28 -113.6L148.64 -113.6L148.64 -69.76L182.4 -69.76L182.4 -113.6L213.76 -113.6L213.76 0L182.4 0L182.4 -44.64L148.64 -44.64L148.64 0ZM264.8 0L232.96 0L273.92 -113.6L309.6 -113.6L350.56 0L318.56 0L312.16 -18.72L271.2 -18.72L264.8 0ZM291.84 -79.04L279.52 -43.04L304 -43.04L291.84 -79.04ZM397.92 0L366.56 0L366.56 -113.6L398.24 -113.6L436.16 -49.6L436.16 -113.6L467.52 -113.6L467.52 0L435.84 0L397.92 -60.8L397.92 0Z" transform="translate(257.28, 532)" fill="#00F2FF" opacity="0.3"/>
  <!-- THAN orange glitch -->
  <path d="M66.24 0L34.72 0L34.72 -88.48L1.6 -88.48L1.6 -113.6L99.36 -113.6L99.36 -88.48L66.24 -88.48L66.24 0ZM148.64 0L117.28 0L117.28 -113.6L148.64 -113.6L148.64 -69.76L182.4 -69.76L182.4 -113.6L213.76 -113.6L213.76 0L182.4 0L182.4 -44.64L148.64 -44.64L148.64 0ZM264.8 0L232.96 0L273.92 -113.6L309.6 -113.6L350.56 0L318.56 0L312.16 -18.72L271.2 -18.72L264.8 0ZM291.84 -79.04L279.52 -43.04L304 -43.04L291.84 -79.04ZM397.92 0L366.56 0L366.56 -113.6L398.24 -113.6L436.16 -49.6L436.16 -113.6L467.52 -113.6L467.52 0L435.84 0L397.92 -60.8L397.92 0Z" transform="translate(273.28, 532)" fill="#FF9900" opacity="0.3"/>
  <!-- THAN white shadow -->
  <path d="M66.24 0L34.72 0L34.72 -88.48L1.6 -88.48L1.6 -113.6L99.36 -113.6L99.36 -88.48L66.24 -88.48L66.24 0ZM148.64 0L117.28 0L117.28 -113.6L148.64 -113.6L148.64 -69.76L182.4 -69.76L182.4 -113.6L213.76 -113.6L213.76 0L182.4 0L182.4 -44.64L148.64 -44.64L148.64 0ZM264.8 0L232.96 0L273.92 -113.6L309.6 -113.6L350.56 0L318.56 0L312.16 -18.72L271.2 -18.72L264.8 0ZM291.84 -79.04L279.52 -43.04L304 -43.04L291.84 -79.04ZM397.92 0L366.56 0L366.56 -113.6L398.24 -113.6L436.16 -49.6L436.16 -113.6L467.52 -113.6L467.52 0L435.84 0L397.92 -60.8L397.92 0Z" transform="translate(265.28, 526)" fill="#FFFFFF" opacity="0.06"/>
  <!-- THAN white main -->
  <path d="M66.24 0L34.72 0L34.72 -88.48L1.6 -88.48L1.6 -113.6L99.36 -113.6L99.36 -88.48L66.24 -88.48L66.24 0ZM148.64 0L117.28 0L117.28 -113.6L148.64 -113.6L148.64 -69.76L182.4 -69.76L182.4 -113.6L213.76 -113.6L213.76 0L182.4 0L182.4 -44.64L148.64 -44.64L148.64 0ZM264.8 0L232.96 0L273.92 -113.6L309.6 -113.6L350.56 0L318.56 0L312.16 -18.72L271.2 -18.72L264.8 0ZM291.84 -79.04L279.52 -43.04L304 -43.04L291.84 -79.04ZM397.92 0L366.56 0L366.56 -113.6L398.24 -113.6L436.16 -49.6L436.16 -113.6L467.52 -113.6L467.52 0L435.84 0L397.92 -60.8L397.92 0Z" transform="translate(265.28, 532)" fill="#FFFFFF"/>

  <!-- ——— "HUMAN" (white) ——— -->
  <!-- HUMAN white cyan glitch -->
  <path d="M41.28 0L9.92 0L9.92 -113.6L41.28 -113.6L41.28 -69.76L75.04 -69.76L75.04 -113.6L106.4 -113.6L106.4 0L75.04 0L75.04 -44.64L41.28 -44.64L41.28 0ZM183.68 2.56L183.68 2.56Q168.64 2.56 157.52 -2.88Q146.4 -8.32 140.32 -18.32Q134.24 -28.32 134.24 -41.92L134.24 -41.92L134.24 -113.6L165.6 -113.6L165.6 -41.92Q165.6 -32.64 170.24 -27.6Q174.88 -22.56 183.68 -22.56L183.68 -22.56Q192.64 -22.56 197.28 -27.6Q201.92 -32.64 201.92 -41.92L201.92 -41.92L201.92 -113.6L233.28 -113.6L233.28 -41.92Q233.28 -28.32 227.2 -18.32Q221.12 -8.32 210 -2.88Q198.88 2.56 183.68 2.56ZM292.48 0L261.12 0L261.12 -113.6L302.4 -113.6L326.4 -41.44L350.4 -113.6L391.68 -113.6L391.68 0L360.32 0L360.32 -64L337.44 -0.48L315.2 -0.48L292.48 -64L292.48 0ZM442.72 0L410.88 0L451.84 -113.6L487.52 -113.6L528.48 0L496.48 0L490.08 -18.72L449.12 -18.72L442.72 0ZM469.76 -79.04L457.44 -43.04L481.92 -43.04L469.76 -79.04ZM575.84 0L544.48 0L544.48 -113.6L576.16 -113.6L614.08 -49.6L614.08 -113.6L645.44 -113.6L645.44 0L613.76 0L575.84 -60.8L575.84 0Z" transform="translate(169.32, 668)" fill="#00F2FF" opacity="0.25"/>
  <!-- HUMAN white orange glitch -->
  <path d="M41.28 0L9.92 0L9.92 -113.6L41.28 -113.6L41.28 -69.76L75.04 -69.76L75.04 -113.6L106.4 -113.6L106.4 0L75.04 0L75.04 -44.64L41.28 -44.64L41.28 0ZM183.68 2.56L183.68 2.56Q168.64 2.56 157.52 -2.88Q146.4 -8.32 140.32 -18.32Q134.24 -28.32 134.24 -41.92L134.24 -41.92L134.24 -113.6L165.6 -113.6L165.6 -41.92Q165.6 -32.64 170.24 -27.6Q174.88 -22.56 183.68 -22.56L183.68 -22.56Q192.64 -22.56 197.28 -27.6Q201.92 -32.64 201.92 -41.92L201.92 -41.92L201.92 -113.6L233.28 -113.6L233.28 -41.92Q233.28 -28.32 227.2 -18.32Q221.12 -8.32 210 -2.88Q198.88 2.56 183.68 2.56ZM292.48 0L261.12 0L261.12 -113.6L302.4 -113.6L326.4 -41.44L350.4 -113.6L391.68 -113.6L391.68 0L360.32 0L360.32 -64L337.44 -0.48L315.2 -0.48L292.48 -64L292.48 0ZM442.72 0L410.88 0L451.84 -113.6L487.52 -113.6L528.48 0L496.48 0L490.08 -18.72L449.12 -18.72L442.72 0ZM469.76 -79.04L457.44 -43.04L481.92 -43.04L469.76 -79.04ZM575.84 0L544.48 0L544.48 -113.6L576.16 -113.6L614.08 -49.6L614.08 -113.6L645.44 -113.6L645.44 0L613.76 0L575.84 -60.8L575.84 0Z" transform="translate(183.32, 668)" fill="#FF9900" opacity="0.25"/>
  <!-- HUMAN white shadow -->
  <path d="M41.28 0L9.92 0L9.92 -113.6L41.28 -113.6L41.28 -69.76L75.04 -69.76L75.04 -113.6L106.4 -113.6L106.4 0L75.04 0L75.04 -44.64L41.28 -44.64L41.28 0ZM183.68 2.56L183.68 2.56Q168.64 2.56 157.52 -2.88Q146.4 -8.32 140.32 -18.32Q134.24 -28.32 134.24 -41.92L134.24 -41.92L134.24 -113.6L165.6 -113.6L165.6 -41.92Q165.6 -32.64 170.24 -27.6Q174.88 -22.56 183.68 -22.56L183.68 -22.56Q192.64 -22.56 197.28 -27.6Q201.92 -32.64 201.92 -41.92L201.92 -41.92L201.92 -113.6L233.28 -113.6L233.28 -41.92Q233.28 -28.32 227.2 -18.32Q221.12 -8.32 210 -2.88Q198.88 2.56 183.68 2.56ZM292.48 0L261.12 0L261.12 -113.6L302.4 -113.6L326.4 -41.44L350.4 -113.6L391.68 -113.6L391.68 0L360.32 0L360.32 -64L337.44 -0.48L315.2 -0.48L292.48 -64L292.48 0ZM442.72 0L410.88 0L451.84 -113.6L487.52 -113.6L528.48 0L496.48 0L490.08 -18.72L449.12 -18.72L442.72 0ZM469.76 -79.04L457.44 -43.04L481.92 -43.04L469.76 -79.04ZM575.84 0L544.48 0L544.48 -113.6L576.16 -113.6L614.08 -49.6L614.08 -113.6L645.44 -113.6L645.44 0L613.76 0L575.84 -60.8L575.84 0Z" transform="translate(174.32, 674)" fill="#FFFFFF" opacity="0.06"/>
  <!-- HUMAN white main -->
  <path d="M41.28 0L9.92 0L9.92 -113.6L41.28 -113.6L41.28 -69.76L75.04 -69.76L75.04 -113.6L106.4 -113.6L106.4 0L75.04 0L75.04 -44.64L41.28 -44.64L41.28 0ZM183.68 2.56L183.68 2.56Q168.64 2.56 157.52 -2.88Q146.4 -8.32 140.32 -18.32Q134.24 -28.32 134.24 -41.92L134.24 -41.92L134.24 -113.6L165.6 -113.6L165.6 -41.92Q165.6 -32.64 170.24 -27.6Q174.88 -22.56 183.68 -22.56L183.68 -22.56Q192.64 -22.56 197.28 -27.6Q201.92 -32.64 201.92 -41.92L201.92 -41.92L201.92 -113.6L233.28 -113.6L233.28 -41.92Q233.28 -28.32 227.2 -18.32Q221.12 -8.32 210 -2.88Q198.88 2.56 183.68 2.56ZM292.48 0L261.12 0L261.12 -113.6L302.4 -113.6L326.4 -41.44L350.4 -113.6L391.68 -113.6L391.68 0L360.32 0L360.32 -64L337.44 -0.48L315.2 -0.48L292.48 -64L292.48 0ZM442.72 0L410.88 0L451.84 -113.6L487.52 -113.6L528.48 0L496.48 0L490.08 -18.72L449.12 -18.72L442.72 0ZM469.76 -79.04L457.44 -43.04L481.92 -43.04L469.76 -79.04ZM575.84 0L544.48 0L544.48 -113.6L576.16 -113.6L614.08 -49.6L614.08 -113.6L645.44 -113.6L645.44 0L613.76 0L575.84 -60.8L575.84 0Z" transform="translate(176.32, 668)" fill="#FFFFFF"/>

<!-- ——— "THAN" ——— -->

<!-- ——— "HUMAN" (white) ——— -->

<!-- Glitch scanline accents -->
  <rect x="130" y="370" width="748" height="2" fill="#00F2FF" opacity="0.08"/>
  <rect x="180" y="510" width="648" height="2" fill="#FF9900" opacity="0.1"/>
  <rect x="150" y="640" width="708" height="1.5" fill="#00F2FF" opacity="0.06"/>

  <!-- ============================================ -->
  <!-- MIDDLE GRADIENT BAR                          -->
  <!-- ============================================ -->
  <rect x="160" y="710" width="688" height="3" rx="1.5" fill="url(#goldGradient)" opacity="0.6"/>

  <!-- ============================================ -->
  <!-- TAGLINE (outlined)                          -->
  <!-- ============================================ -->
  <!-- Tagline line 1 -->
  <path d="M1.71 0L0.3 0L4.14 -10.65L5.88 -10.65L9.72 0L8.31 0L7.25 -3.03L2.78 -3.03L1.71 0ZM5.01 -9.52L3.21 -4.29L6.81 -4.29L5.01 -9.52ZM15.81 0.24L15.81 0.24Q14.58 0.24 13.67 -0.22Q12.75 -0.69 12.22 -1.51Q11.68 -2.32 11.6 -3.4L11.6 -3.4L12.95 -3.49Q13.11 -2.31 13.84 -1.66Q14.57 -1.02 15.84 -1.02L15.84 -1.02Q16.95 -1.02 17.57 -1.45Q18.2 -1.87 18.2 -2.7L18.2 -2.7Q18.2 -3.19 17.96 -3.58Q17.73 -3.96 17.08 -4.28Q16.42 -4.6 15.15 -4.92L15.15 -4.92Q13.92 -5.23 13.19 -5.61Q12.47 -5.98 12.14 -6.52Q11.82 -7.06 11.82 -7.86L11.82 -7.86Q11.82 -8.76 12.25 -9.44Q12.68 -10.12 13.47 -10.51Q14.26 -10.89 15.36 -10.89L15.36 -10.89Q16.53 -10.89 17.37 -10.45Q18.21 -10 18.7 -9.24Q19.2 -8.47 19.32 -7.5L19.32 -7.5L17.97 -7.41Q17.84 -8.38 17.18 -9.01Q16.53 -9.63 15.33 -9.63L15.33 -9.63Q14.34 -9.63 13.76 -9.16Q13.17 -8.68 13.17 -7.92L13.17 -7.92Q13.17 -7.42 13.4 -7.1Q13.64 -6.78 14.24 -6.53Q14.84 -6.28 15.96 -6L15.96 -6Q17.29 -5.67 18.08 -5.21Q18.87 -4.75 19.21 -4.15Q19.55 -3.55 19.55 -2.79L19.55 -2.79Q19.55 -1.86 19.06 -1.18Q18.59 -0.49 17.74 -0.13Q16.91 0.24 15.81 0.24ZM28.23 0L26.82 0L30.66 -10.65L32.4 -10.65L36.24 0L34.83 0L33.76 -3.03L29.29 -3.03L28.23 0ZM31.53 -9.52L29.73 -4.29L33.33 -4.29L31.53 -9.52ZM40.11 0L38.82 0L38.82 -10.65L40.11 -10.65L40.11 0ZM52.68 0.24L52.68 0.24Q51.45 0.24 50.54 -0.22Q49.62 -0.69 49.09 -1.51Q48.56 -2.32 48.47 -3.4L48.47 -3.4L49.82 -3.49Q49.98 -2.31 50.71 -1.66Q51.44 -1.02 52.71 -1.02L52.71 -1.02Q53.82 -1.02 54.44 -1.45Q55.07 -1.87 55.07 -2.7L55.07 -2.7Q55.07 -3.19 54.83 -3.58Q54.6 -3.96 53.95 -4.28Q53.3 -4.6 52.02 -4.92L52.02 -4.92Q50.79 -5.23 50.06 -5.61Q49.34 -5.98 49.01 -6.52Q48.69 -7.06 48.69 -7.86L48.69 -7.86Q48.69 -8.76 49.12 -9.44Q49.55 -10.12 50.34 -10.51Q51.14 -10.89 52.23 -10.89L52.23 -10.89Q53.4 -10.89 54.24 -10.45Q55.08 -10 55.58 -9.24Q56.07 -8.47 56.19 -7.5L56.19 -7.5L54.84 -7.41Q54.71 -8.38 54.05 -9.01Q53.4 -9.63 52.2 -9.63L52.2 -9.63Q51.21 -9.63 50.63 -9.16Q50.04 -8.68 50.04 -7.92L50.04 -7.92Q50.04 -7.42 50.27 -7.1Q50.51 -6.78 51.11 -6.53Q51.71 -6.28 52.83 -6L52.83 -6Q54.17 -5.67 54.95 -5.21Q55.74 -4.75 56.08 -4.15Q56.42 -3.55 56.42 -2.79L56.42 -2.79Q56.42 -1.86 55.94 -1.18Q55.46 -0.49 54.62 -0.13Q53.78 0.24 52.68 0.24ZM61.29 0L60 0L60 -10.65L61.29 -10.65L61.29 -5.98L66.65 -5.98L66.65 -10.65L67.94 -10.65L67.94 0L66.65 0L66.65 -4.72L61.29 -4.72L61.29 0ZM72.89 0L71.6 0L71.6 -10.65L72.89 -10.65L72.89 0ZM77.84 0L76.55 0L76.55 -10.65L83.24 -10.65L83.24 -9.39L77.84 -9.39L77.84 -5.82L82.97 -5.82L82.97 -4.59L77.84 -4.59L77.84 0ZM90 0L88.71 0L88.71 -9.39L85.4 -9.39L85.4 -10.65L93.32 -10.65L93.32 -9.39L90 -9.39L90 0ZM99.14 0.24L99.14 0.24Q97.91 0.24 96.99 -0.22Q96.08 -0.69 95.54 -1.51Q95.01 -2.32 94.92 -3.4L94.92 -3.4L96.27 -3.49Q96.44 -2.31 97.16 -1.66Q97.89 -1.02 99.17 -1.02L99.17 -1.02Q100.28 -1.02 100.9 -1.45Q101.52 -1.87 101.52 -2.7L101.52 -2.7Q101.52 -3.19 101.29 -3.58Q101.06 -3.96 100.4 -4.28Q99.75 -4.6 98.48 -4.92L98.48 -4.92Q97.25 -5.23 96.52 -5.61Q95.79 -5.98 95.47 -6.52Q95.15 -7.06 95.15 -7.86L95.15 -7.86Q95.15 -8.76 95.57 -9.44Q96 -10.12 96.8 -10.51Q97.59 -10.89 98.69 -10.89L98.69 -10.89Q99.86 -10.89 100.7 -10.45Q101.54 -10 102.03 -9.24Q102.53 -8.47 102.65 -7.5L102.65 -7.5L101.3 -7.41Q101.16 -8.38 100.51 -9.01Q99.86 -9.63 98.66 -9.63L98.66 -9.63Q97.67 -9.63 97.08 -9.16Q96.5 -8.68 96.5 -7.92L96.5 -7.92Q96.5 -7.42 96.73 -7.1Q96.96 -6.78 97.56 -6.53Q98.16 -6.28 99.29 -6L99.29 -6Q100.62 -5.67 101.41 -5.21Q102.2 -4.75 102.53 -4.15Q102.87 -3.55 102.87 -2.79L102.87 -2.79Q102.87 -1.86 102.39 -1.18Q101.91 -0.49 101.07 -0.13Q100.23 0.24 99.14 0.24ZM112.52 0L111.23 0L111.23 -10.65L117.92 -10.65L117.92 -9.39L112.52 -9.39L112.52 -5.82L117.65 -5.82L117.65 -4.59L112.52 -4.59L112.52 0ZM122.27 0L120.98 0L120.98 -10.65L125.01 -10.65Q126.69 -10.65 127.67 -9.78Q128.64 -8.91 128.64 -7.42L128.64 -7.42Q128.64 -6.81 128.39 -6.31Q128.13 -5.8 127.73 -5.46Q127.32 -5.11 126.84 -4.98L126.84 -4.98Q127.55 -4.86 127.96 -4.41Q128.37 -3.96 128.45 -3.13L128.45 -3.13L128.75 0L127.44 0L127.17 -3Q127.11 -3.66 126.7 -3.97Q126.29 -4.29 125.36 -4.29L125.36 -4.29L122.27 -4.29L122.27 0ZM122.27 -9.39L122.27 -5.55L125.18 -5.55Q126.15 -5.55 126.72 -6.04Q127.29 -6.54 127.29 -7.45L127.29 -7.45Q127.29 -8.38 126.71 -8.89Q126.12 -9.39 125.01 -9.39L125.01 -9.39L122.27 -9.39ZM136.19 0.24L136.19 0.24Q134.67 0.24 133.58 -0.43Q132.5 -1.09 131.91 -2.34Q131.33 -3.58 131.33 -5.31L131.33 -5.31Q131.33 -7.03 131.91 -8.29Q132.5 -9.54 133.58 -10.21Q134.67 -10.89 136.19 -10.89L136.19 -10.89Q137.72 -10.89 138.8 -10.21Q139.89 -9.54 140.48 -8.29Q141.06 -7.03 141.06 -5.31L141.06 -5.31Q141.06 -3.58 140.48 -2.34Q139.89 -1.09 138.8 -0.43Q137.72 0.24 136.19 0.24ZM136.19 -1.02L136.19 -1.02Q137.84 -1.02 138.77 -2.15Q139.71 -3.28 139.71 -5.31L139.71 -5.31Q139.71 -7.33 138.77 -8.48Q137.84 -9.63 136.19 -9.63L136.19 -9.63Q134.55 -9.63 133.61 -8.48Q132.68 -7.33 132.68 -5.31L132.68 -5.31Q132.68 -3.28 133.61 -2.15Q134.55 -1.02 136.19 -1.02ZM145.79 0L144.5 0L144.5 -10.65L146.3 -10.65L149.7 -1.41L153.09 -10.65L154.89 -10.65L154.89 0L153.6 0L153.6 -8.25L150.56 0L148.83 0L145.79 -8.25L145.79 0ZM164.13 0L162.72 0L166.56 -10.65L168.3 -10.65L172.14 0L170.73 0L169.67 -3.03L165.2 -3.03L164.13 0ZM167.43 -9.52L165.63 -4.29L169.23 -4.29L167.43 -9.52ZM183.37 0L182.08 0L182.08 -9.39L178.77 -9.39L178.77 -10.65L186.69 -10.65L186.69 -9.39L183.37 -9.39L183.37 0ZM193 0.24L193 0.24Q191.49 0.24 190.4 -0.43Q189.31 -1.09 188.73 -2.34Q188.15 -3.58 188.15 -5.31L188.15 -5.31Q188.15 -7.03 188.73 -8.29Q189.31 -9.54 190.4 -10.21Q191.49 -10.89 193 -10.89L193 -10.89Q194.53 -10.89 195.62 -10.21Q196.71 -9.54 197.29 -8.29Q197.88 -7.03 197.88 -5.31L197.88 -5.31Q197.88 -3.58 197.29 -2.34Q196.71 -1.09 195.62 -0.43Q194.53 0.24 193 0.24ZM193 -1.02L193 -1.02Q194.65 -1.02 195.59 -2.15Q196.53 -3.28 196.53 -5.31L196.53 -5.31Q196.53 -7.33 195.59 -8.48Q194.65 -9.63 193 -9.63L193 -9.63Q191.37 -9.63 190.43 -8.48Q189.49 -7.33 189.49 -5.31L189.49 -5.31Q189.49 -3.28 190.43 -2.15Q191.37 -1.02 193 -1.02ZM205.29 0.24L205.29 0.24Q203.77 0.24 202.69 -0.43Q201.6 -1.09 201.01 -2.34Q200.43 -3.58 200.43 -5.31L200.43 -5.31Q200.43 -7.03 201.01 -8.29Q201.6 -9.54 202.69 -10.21Q203.77 -10.89 205.29 -10.89L205.29 -10.89Q206.82 -10.89 207.91 -10.21Q208.99 -9.54 209.58 -8.29Q210.16 -7.03 210.16 -5.31L210.16 -5.31Q210.16 -3.58 209.58 -2.34Q208.99 -1.09 207.91 -0.43Q206.82 0.24 205.29 0.24ZM205.29 -1.02L205.29 -1.02Q206.94 -1.02 207.88 -2.15Q208.81 -3.28 208.81 -5.31L208.81 -5.31Q208.81 -7.33 207.88 -8.48Q206.94 -9.63 205.29 -9.63L205.29 -9.63Q203.65 -9.63 202.72 -8.48Q201.78 -7.33 201.78 -5.31L201.78 -5.31Q201.78 -3.28 202.72 -2.15Q203.65 -1.02 205.29 -1.02ZM219.88 0L213.27 0L213.27 -10.65L214.56 -10.65L214.56 -1.26L219.88 -1.26L219.88 0ZM231.72 0L230.11 0L227.31 -10.65L228.72 -10.65L230.91 -1.77L233.08 -10.65L234.55 -10.65L236.74 -1.77L238.92 -10.65L240.34 -10.65L237.54 0L235.92 0L233.82 -8.25L231.72 0ZM249.97 0L243.16 0L243.16 -10.65L249.85 -10.65L249.85 -9.39L244.45 -9.39L244.45 -5.95L249.67 -5.95L249.67 -4.72L244.45 -4.72L244.45 -1.26L249.97 -1.26L249.97 0ZM262.15 0.24L262.15 0.24Q260.92 0.24 260.02 -0.24Q259.11 -0.72 258.62 -1.61Q258.13 -2.5 258.13 -3.72L258.13 -3.72L258.13 -10.65L259.42 -10.65L259.42 -3.72Q259.42 -2.43 260.14 -1.72Q260.85 -1.02 262.15 -1.02L262.15 -1.02Q263.44 -1.02 264.16 -1.72Q264.87 -2.43 264.87 -3.72L264.87 -3.72L264.87 -10.65L266.16 -10.65L266.16 -3.72Q266.16 -2.5 265.67 -1.61Q265.18 -0.72 264.28 -0.24Q263.38 0.24 262.15 0.24ZM273.55 0.24L273.55 0.24Q272.32 0.24 271.41 -0.22Q270.49 -0.69 269.96 -1.51Q269.43 -2.32 269.34 -3.4L269.34 -3.4L270.69 -3.49Q270.85 -2.31 271.58 -1.66Q272.31 -1.02 273.58 -1.02L273.58 -1.02Q274.69 -1.02 275.32 -1.45Q275.94 -1.87 275.94 -2.7L275.94 -2.7Q275.94 -3.19 275.71 -3.58Q275.47 -3.96 274.82 -4.28Q274.17 -4.6 272.89 -4.92L272.89 -4.92Q271.66 -5.23 270.94 -5.61Q270.21 -5.98 269.89 -6.52Q269.56 -7.06 269.56 -7.86L269.56 -7.86Q269.56 -8.76 269.99 -9.44Q270.42 -10.12 271.21 -10.51Q272.01 -10.89 273.1 -10.89L273.1 -10.89Q274.27 -10.89 275.11 -10.45Q275.95 -10 276.45 -9.24Q276.94 -8.47 277.06 -7.5L277.06 -7.5L275.71 -7.41Q275.58 -8.38 274.93 -9.01Q274.27 -9.63 273.07 -9.63L273.07 -9.63Q272.08 -9.63 271.5 -9.16Q270.91 -8.68 270.91 -7.92L270.91 -7.92Q270.91 -7.42 271.15 -7.1Q271.38 -6.78 271.98 -6.53Q272.58 -6.28 273.7 -6L273.7 -6Q275.04 -5.67 275.83 -5.21Q276.61 -4.75 276.95 -4.15Q277.29 -3.55 277.29 -2.79L277.29 -2.79Q277.29 -1.86 276.81 -1.18Q276.33 -0.49 275.49 -0.13Q274.65 0.24 273.55 0.24ZM287.68 0L280.87 0L280.87 -10.65L287.56 -10.65L287.56 -9.39L282.16 -9.39L282.16 -5.95L287.38 -5.95L287.38 -4.72L282.16 -4.72L282.16 -1.26L287.68 -1.26L287.68 0ZM299.47 0L298.18 0L298.18 -9.39L294.87 -9.39L294.87 -10.65L302.79 -10.65L302.79 -9.39L299.47 -9.39L299.47 0ZM309.1 0.24L309.1 0.24Q307.59 0.24 306.5 -0.43Q305.41 -1.09 304.83 -2.34Q304.24 -3.58 304.24 -5.31L304.24 -5.31Q304.24 -7.03 304.83 -8.29Q305.41 -9.54 306.5 -10.21Q307.59 -10.89 309.1 -10.89L309.1 -10.89Q310.63 -10.89 311.72 -10.21Q312.81 -9.54 313.39 -8.29Q313.98 -7.03 313.98 -5.31L313.98 -5.31Q313.98 -3.58 313.39 -2.34Q312.81 -1.09 311.72 -0.43Q310.63 0.24 309.1 0.24ZM309.1 -1.02L309.1 -1.02Q310.75 -1.02 311.69 -2.15Q312.63 -3.28 312.63 -5.31L312.63 -5.31Q312.63 -7.33 311.69 -8.48Q310.75 -9.63 309.1 -9.63L309.1 -9.63Q307.47 -9.63 306.53 -8.48Q305.59 -7.33 305.59 -5.31L305.59 -5.31Q305.59 -3.28 306.53 -2.15Q307.47 -1.02 309.1 -1.02ZM322.51 0L321.1 0L324.94 -10.65L326.68 -10.65L330.52 0L329.11 0L328.05 -3.03L323.58 -3.03L322.51 0ZM325.81 -9.52L324.01 -4.29L327.61 -4.29L325.81 -9.52ZM334.39 0L333.1 0L333.1 -10.65L334.93 -10.65L340.2 -1.29L340.2 -10.65L341.49 -10.65L341.49 0L339.57 0L334.39 -9.18L334.39 0ZM350.73 0L349.32 0L353.16 -10.65L354.9 -10.65L358.74 0L357.33 0L356.26 -3.03L351.79 -3.03L350.73 0ZM354.03 -9.52L352.23 -4.29L355.83 -4.29L354.03 -9.52ZM365.22 0.24L365.22 0.24Q363.72 0.24 362.65 -0.48Q361.59 -1.2 361.03 -2.45Q360.46 -3.7 360.46 -5.31L360.46 -5.31Q360.46 -6.91 361.03 -8.17Q361.6 -9.43 362.68 -10.16Q363.75 -10.89 365.25 -10.89L365.25 -10.89Q366.52 -10.89 367.4 -10.42Q368.28 -9.96 368.8 -9.16Q369.31 -8.37 369.51 -7.38L369.51 -7.38L368.16 -7.29Q367.96 -8.32 367.29 -8.98Q366.61 -9.63 365.25 -9.63L365.25 -9.63Q364.03 -9.63 363.28 -9.03Q362.52 -8.43 362.17 -7.45Q361.81 -6.46 361.81 -5.31L361.81 -5.31Q361.81 -4.09 362.17 -3.13Q362.53 -2.16 363.3 -1.59Q364.06 -1.02 365.25 -1.02L365.25 -1.02Q366.19 -1.02 366.88 -1.45Q367.57 -1.87 367.95 -2.59Q368.32 -3.31 368.34 -4.15L368.34 -4.15L365.28 -4.15L365.28 -5.38L369.54 -5.38L369.54 0L368.58 0L368.52 -1.78Q368.11 -0.88 367.21 -0.32Q366.31 0.24 365.22 0.24ZM379.68 0L372.87 0L372.87 -10.65L379.56 -10.65L379.56 -9.39L374.16 -9.39L374.16 -5.95L379.38 -5.95L379.38 -4.72L374.16 -4.72L374.16 -1.26L379.68 -1.26L379.68 0ZM384.25 0L382.96 0L382.96 -10.65L384.79 -10.65L390.06 -1.29L390.06 -10.65L391.35 -10.65L391.35 0L389.43 0L384.25 -9.18L384.25 0ZM398.11 0L396.82 0L396.82 -9.39L393.51 -9.39L393.51 -10.65L401.43 -10.65L401.43 -9.39L398.11 -9.39L398.11 0ZM412.54 0L411.25 0L411.25 -9.39L407.94 -9.39L407.94 -10.65L415.86 -10.65L415.86 -9.39L412.54 -9.39L412.54 0ZM419.46 0L418.17 0L418.17 -10.65L419.46 -10.65L419.46 -5.98L424.81 -5.98L424.81 -10.65L426.1 -10.65L426.1 0L424.81 0L424.81 -4.72L419.46 -4.72L419.46 0ZM430.24 0L428.83 0L432.67 -10.65L434.41 -10.65L438.25 0L436.84 0L435.78 -3.03L431.31 -3.03L430.24 0ZM433.54 -9.52L431.74 -4.29L435.34 -4.29L433.54 -9.52ZM443.19 0L441.9 0L441.9 -9.39L438.58 -9.39L438.58 -10.65L446.5 -10.65L446.5 -9.39L443.19 -9.39L443.19 0ZM454.54 0L453.13 0L456.97 -10.65L458.71 -10.65L462.55 0L461.14 0L460.08 -3.03L455.61 -3.03L454.54 0ZM457.84 -9.52L456.04 -4.29L459.64 -4.29L457.84 -9.52ZM469.06 0.24L469.06 0.24Q467.64 0.24 466.56 -0.43Q465.48 -1.09 464.88 -2.34Q464.28 -3.58 464.28 -5.31L464.28 -5.31Q464.28 -7.03 464.88 -8.29Q465.48 -9.54 466.56 -10.21Q467.64 -10.89 469.06 -10.89L469.06 -10.89Q471 -10.89 472.06 -9.91Q473.13 -8.94 473.46 -7.26L473.46 -7.26L472.09 -7.17Q471.87 -8.31 471.13 -8.97Q470.4 -9.63 469.06 -9.63L469.06 -9.63Q468.04 -9.63 467.27 -9.11Q466.5 -8.59 466.06 -7.63Q465.63 -6.66 465.63 -5.31L465.63 -5.31Q465.63 -3.96 466.06 -3Q466.5 -2.04 467.27 -1.53Q468.04 -1.02 469.06 -1.02L469.06 -1.02Q470.46 -1.02 471.22 -1.75Q471.99 -2.47 472.18 -3.72L472.18 -3.72L473.55 -3.63Q473.35 -2.47 472.78 -1.6Q472.21 -0.73 471.28 -0.25Q470.34 0.24 469.06 0.24ZM479.91 0L478.62 0L478.62 -9.39L475.3 -9.39L475.3 -10.65L483.22 -10.65L483.22 -9.39L479.91 -9.39L479.91 0ZM489.04 0.24L489.04 0.24Q487.81 0.24 486.9 -0.22Q485.98 -0.69 485.45 -1.51Q484.92 -2.32 484.83 -3.4L484.83 -3.4L486.18 -3.49Q486.34 -2.31 487.07 -1.66Q487.8 -1.02 489.07 -1.02L489.07 -1.02Q490.18 -1.02 490.81 -1.45Q491.43 -1.87 491.43 -2.7L491.43 -2.7Q491.43 -3.19 491.2 -3.58Q490.96 -3.96 490.31 -4.28Q489.66 -4.6 488.38 -4.92L488.38 -4.92Q487.15 -5.23 486.43 -5.61Q485.7 -5.98 485.38 -6.52Q485.05 -7.06 485.05 -7.86L485.05 -7.86Q485.05 -8.76 485.48 -9.44Q485.91 -10.12 486.7 -10.51Q487.5 -10.89 488.59 -10.89L488.59 -10.89Q489.76 -10.89 490.6 -10.45Q491.44 -10 491.94 -9.24Q492.43 -8.47 492.55 -7.5L492.55 -7.5L491.2 -7.41Q491.07 -8.38 490.42 -9.01Q489.76 -9.63 488.56 -9.63L488.56 -9.63Q487.57 -9.63 486.99 -9.16Q486.4 -8.68 486.4 -7.92L486.4 -7.92Q486.4 -7.42 486.64 -7.1Q486.87 -6.78 487.47 -6.53Q488.07 -6.28 489.19 -6L489.19 -6Q490.53 -5.67 491.32 -5.21Q492.1 -4.75 492.44 -4.15Q492.78 -3.55 492.78 -2.79L492.78 -2.79Q492.78 -1.86 492.3 -1.18Q491.82 -0.49 490.98 -0.13Q490.14 0.24 489.04 0.24ZM495.96 2.34L495.21 2.34L495.93 0L495.16 0L495.16 -1.69L496.86 -1.69L496.86 -0.21L495.96 2.34Z" transform="translate(255.24, 760)" fill="#A3A3A3"/>
  <!-- Tagline line 2 -->
  <path d="M4.79 0L3.49 0L3.49 -9.39L0.18 -9.39L0.18 -10.65L8.1 -10.65L8.1 -9.39L4.79 -9.39L4.79 0ZM11.7 0L10.41 0L10.41 -10.65L11.7 -10.65L11.7 -5.98L17.06 -5.98L17.06 -10.65L18.35 -10.65L18.35 0L17.06 0L17.06 -4.72L11.7 -4.72L11.7 0ZM28.82 0L22.01 0L22.01 -10.65L28.7 -10.65L28.7 -9.39L23.3 -9.39L23.3 -5.95L28.52 -5.95L28.52 -4.72L23.3 -4.72L23.3 -1.26L28.82 -1.26L28.82 0ZM41.46 0L37.2 0L37.2 -10.65L40.86 -10.65Q42.75 -10.65 43.7 -9.96Q44.64 -9.27 44.64 -7.78L44.64 -7.78Q44.64 -6.88 44.14 -6.28Q43.64 -5.67 42.75 -5.5L42.75 -5.5Q43.85 -5.35 44.47 -4.66Q45.09 -3.96 45.09 -2.92L45.09 -2.92Q45.09 -1.47 44.15 -0.73Q43.2 0 41.46 0L41.46 0ZM38.49 -9.39L38.49 -6.04L40.86 -6.04Q42.03 -6.04 42.66 -6.49Q43.29 -6.93 43.29 -7.72L43.29 -7.72Q43.29 -9.39 40.86 -9.39L40.86 -9.39L38.49 -9.39ZM38.49 -4.78L38.49 -1.26L41.46 -1.26Q42.56 -1.26 43.15 -1.71Q43.74 -2.16 43.74 -3L43.74 -3Q43.74 -3.84 43.15 -4.31Q42.56 -4.78 41.46 -4.78L41.46 -4.78L38.49 -4.78ZM52.61 0.24L52.61 0.24Q51.09 0.24 50 -0.43Q48.92 -1.09 48.33 -2.34Q47.75 -3.58 47.75 -5.31L47.75 -5.31Q47.75 -7.03 48.33 -8.29Q48.92 -9.54 50 -10.21Q51.09 -10.89 52.61 -10.89L52.61 -10.89Q54.14 -10.89 55.22 -10.21Q56.31 -9.54 56.9 -8.29Q57.48 -7.03 57.48 -5.31L57.48 -5.31Q57.48 -3.58 56.9 -2.34Q56.31 -1.09 55.22 -0.43Q54.14 0.24 52.61 0.24ZM52.61 -1.02L52.61 -1.02Q54.26 -1.02 55.19 -2.15Q56.13 -3.28 56.13 -5.31L56.13 -5.31Q56.13 -7.33 55.19 -8.48Q54.26 -9.63 52.61 -9.63L52.61 -9.63Q50.97 -9.63 50.03 -8.48Q49.1 -7.33 49.1 -5.31L49.1 -5.31Q49.1 -3.28 50.03 -2.15Q50.97 -1.02 52.61 -1.02ZM64.53 0.24L64.53 0.24Q63.3 0.24 62.39 -0.24Q61.49 -0.72 61 -1.61Q60.51 -2.5 60.51 -3.72L60.51 -3.72L60.51 -10.65L61.8 -10.65L61.8 -3.72Q61.8 -2.43 62.51 -1.72Q63.23 -1.02 64.53 -1.02L64.53 -1.02Q65.82 -1.02 66.53 -1.72Q67.25 -2.43 67.25 -3.72L67.25 -3.72L67.25 -10.65L68.54 -10.65L68.54 -3.72Q68.54 -2.5 68.05 -1.61Q67.56 -0.72 66.66 -0.24Q65.76 0.24 64.53 0.24ZM73.79 0L72.5 0L72.5 -10.65L74.33 -10.65L79.59 -1.29L79.59 -10.65L80.88 -10.65L80.88 0L78.96 0L73.79 -9.18L73.79 0ZM87.93 0L84.54 0L84.54 -10.65L87.84 -10.65Q90.3 -10.65 91.63 -9.26Q92.96 -7.87 92.96 -5.31L92.96 -5.31Q92.96 -2.76 91.65 -1.38Q90.35 0 87.93 0L87.93 0ZM85.83 -9.39L85.83 -1.26L87.84 -1.26Q91.61 -1.26 91.61 -5.31L91.61 -5.31Q91.61 -9.39 87.84 -9.39L87.84 -9.39L85.83 -9.39ZM96.03 0L94.62 0L98.46 -10.65L100.2 -10.65L104.04 0L102.63 0L101.57 -3.03L97.1 -3.03L96.03 0ZM99.33 -9.52L97.53 -4.29L101.13 -4.29L99.33 -9.52ZM107.91 0L106.62 0L106.62 -10.65L110.66 -10.65Q112.34 -10.65 113.31 -9.78Q114.29 -8.91 114.29 -7.42L114.29 -7.42Q114.29 -6.81 114.03 -6.31Q113.78 -5.8 113.37 -5.46Q112.97 -5.11 112.49 -4.98L112.49 -4.98Q113.19 -4.86 113.6 -4.41Q114.02 -3.96 114.09 -3.13L114.09 -3.13L114.39 0L113.09 0L112.82 -3Q112.76 -3.66 112.34 -3.97Q111.93 -4.29 111 -4.29L111 -4.29L107.91 -4.29L107.91 0ZM107.91 -9.39L107.91 -5.55L110.82 -5.55Q111.8 -5.55 112.37 -6.04Q112.94 -6.54 112.94 -7.45L112.94 -7.45Q112.94 -8.38 112.35 -8.89Q111.77 -9.39 110.66 -9.39L110.66 -9.39L107.91 -9.39ZM121.19 0L119.9 0L119.9 -4.35L116.13 -10.65L117.66 -10.65L120.54 -5.67L123.42 -10.65L124.95 -10.65L121.19 -4.35L121.19 0ZM136.65 0L132.39 0L132.39 -10.65L136.05 -10.65Q137.94 -10.65 138.89 -9.96Q139.83 -9.27 139.83 -7.78L139.83 -7.78Q139.83 -6.88 139.33 -6.28Q138.82 -5.67 137.94 -5.5L137.94 -5.5Q139.04 -5.35 139.66 -4.66Q140.28 -3.96 140.28 -2.92L140.28 -2.92Q140.28 -1.47 139.33 -0.73Q138.39 0 136.65 0L136.65 0ZM133.68 -9.39L133.68 -6.04L136.05 -6.04Q137.22 -6.04 137.85 -6.49Q138.48 -6.93 138.48 -7.72L138.48 -7.72Q138.48 -9.39 136.05 -9.39L136.05 -9.39L133.68 -9.39ZM133.68 -4.78L133.68 -1.26L136.65 -1.26Q137.75 -1.26 138.34 -1.71Q138.93 -2.16 138.93 -3L138.93 -3Q138.93 -3.84 138.34 -4.31Q137.75 -4.78 136.65 -4.78L136.65 -4.78L133.68 -4.78ZM150.31 0L143.5 0L143.5 -10.65L150.19 -10.65L150.19 -9.39L144.79 -9.39L144.79 -5.95L150.01 -5.95L150.01 -4.72L144.79 -4.72L144.79 -1.26L150.31 -1.26L150.31 0ZM157.15 0L155.86 0L155.86 -9.39L152.55 -9.39L152.55 -10.65L160.47 -10.65L160.47 -9.39L157.15 -9.39L157.15 0ZM166.68 0L165.07 0L162.27 -10.65L163.68 -10.65L165.87 -1.77L168.04 -10.65L169.51 -10.65L171.7 -1.77L173.88 -10.65L175.3 -10.65L172.5 0L170.88 0L168.78 -8.25L166.68 0ZM184.93 0L178.12 0L178.12 -10.65L184.81 -10.65L184.81 -9.39L179.41 -9.39L179.41 -5.95L184.63 -5.95L184.63 -4.72L179.41 -4.72L179.41 -1.26L184.93 -1.26L184.93 0ZM195.03 0L188.22 0L188.22 -10.65L194.91 -10.65L194.91 -9.39L189.51 -9.39L189.51 -5.95L194.73 -5.95L194.73 -4.72L189.51 -4.72L189.51 -1.26L195.03 -1.26L195.03 0ZM199.6 0L198.31 0L198.31 -10.65L200.14 -10.65L205.41 -1.29L205.41 -10.65L206.7 -10.65L206.7 0L204.78 0L199.6 -9.18L199.6 0ZM216.9 0L215.61 0L215.61 -10.65L216.9 -10.65L216.9 -5.98L222.25 -5.98L222.25 -10.65L223.54 -10.65L223.54 0L222.25 0L222.25 -4.72L216.9 -4.72L216.9 0ZM231.52 0.24L231.52 0.24Q230.29 0.24 229.39 -0.24Q228.48 -0.72 227.99 -1.61Q227.5 -2.5 227.5 -3.72L227.5 -3.72L227.5 -10.65L228.79 -10.65L228.79 -3.72Q228.79 -2.43 229.51 -1.72Q230.22 -1.02 231.52 -1.02L231.52 -1.02Q232.81 -1.02 233.53 -1.72Q234.24 -2.43 234.24 -3.72L234.24 -3.72L234.24 -10.65L235.53 -10.65L235.53 -3.72Q235.53 -2.5 235.04 -1.61Q234.55 -0.72 233.65 -0.24Q232.75 0.24 231.52 0.24ZM240.78 0L239.49 0L239.49 -10.65L241.29 -10.65L244.69 -1.41L248.08 -10.65L249.88 -10.65L249.88 0L248.59 0L248.59 -8.25L245.55 0L243.82 0L240.78 -8.25L240.78 0ZM254.02 0L252.61 0L256.45 -10.65L258.19 -10.65L262.03 0L260.62 0L259.56 -3.03L255.09 -3.03L254.02 0ZM257.32 -9.52L255.52 -4.29L259.12 -4.29L257.32 -9.52ZM265.9 0L264.61 0L264.61 -10.65L266.44 -10.65L271.71 -1.29L271.71 -10.65L273 -10.65L273 0L271.08 0L265.9 -9.18L265.9 0ZM282.24 0L280.83 0L284.67 -10.65L286.41 -10.65L290.25 0L288.84 0L287.77 -3.03L283.3 -3.03L282.24 0ZM285.54 -9.52L283.74 -4.29L287.34 -4.29L285.54 -9.52ZM294.12 0L292.83 0L292.83 -10.65L294.66 -10.65L299.92 -1.29L299.92 -10.65L301.21 -10.65L301.21 0L299.29 0L294.12 -9.18L294.12 0ZM308.26 0L304.87 0L304.87 -10.65L308.17 -10.65Q310.63 -10.65 311.96 -9.26Q313.29 -7.87 313.29 -5.31L313.29 -5.31Q313.29 -2.76 311.98 -1.38Q310.68 0 308.26 0L308.26 0ZM306.16 -9.39L306.16 -1.26L308.17 -1.26Q311.94 -1.26 311.94 -5.31L311.94 -5.31Q311.94 -9.39 308.17 -9.39L308.17 -9.39L306.16 -9.39ZM322.72 0L321.43 0L321.43 -10.65L323.23 -10.65L326.64 -1.41L330.03 -10.65L331.83 -10.65L331.83 0L330.54 0L330.54 -8.25L327.49 0L325.77 0L322.72 -8.25L322.72 0ZM335.97 0L334.56 0L338.4 -10.65L340.14 -10.65L343.98 0L342.57 0L341.5 -3.03L337.03 -3.03L335.97 0ZM339.27 -9.52L337.47 -4.29L341.07 -4.29L339.27 -9.52ZM350.49 0.24L350.49 0.24Q349.06 0.24 347.98 -0.43Q346.9 -1.09 346.3 -2.34Q345.7 -3.58 345.7 -5.31L345.7 -5.31Q345.7 -7.03 346.3 -8.29Q346.9 -9.54 347.98 -10.21Q349.06 -10.89 350.49 -10.89L350.49 -10.89Q352.42 -10.89 353.49 -9.91Q354.55 -8.94 354.88 -7.26L354.88 -7.26L353.52 -7.17Q353.29 -8.31 352.56 -8.97Q351.82 -9.63 350.49 -9.63L350.49 -9.63Q349.47 -9.63 348.7 -9.11Q347.92 -8.59 347.49 -7.63Q347.05 -6.66 347.05 -5.31L347.05 -5.31Q347.05 -3.96 347.49 -3Q347.92 -2.04 348.7 -1.53Q349.47 -1.02 350.49 -1.02L350.49 -1.02Q351.88 -1.02 352.65 -1.75Q353.41 -2.47 353.61 -3.72L353.61 -3.72L354.97 -3.63Q354.78 -2.47 354.21 -1.6Q353.64 -0.73 352.7 -0.25Q351.76 0.24 350.49 0.24ZM359.47 0L358.18 0L358.18 -10.65L359.47 -10.65L359.47 -5.98L364.83 -5.98L364.83 -10.65L366.12 -10.65L366.12 0L364.83 0L364.83 -4.72L359.47 -4.72L359.47 0ZM371.07 0L369.78 0L369.78 -10.65L371.07 -10.65L371.07 0ZM376.02 0L374.73 0L374.73 -10.65L376.56 -10.65L381.82 -1.29L381.82 -10.65L383.11 -10.65L383.11 0L381.19 0L376.02 -9.18L376.02 0ZM393.58 0L386.77 0L386.77 -10.65L393.46 -10.65L393.46 -9.39L388.06 -9.39L388.06 -5.95L393.28 -5.95L393.28 -4.72L388.06 -4.72L388.06 -1.26L393.58 -1.26L393.58 0ZM403.26 0L401.97 0L401.97 -10.65L403.26 -10.65L403.26 0ZM410.67 0.24L410.67 0.24Q409.44 0.24 408.52 -0.22Q407.61 -0.69 407.08 -1.51Q406.54 -2.32 406.45 -3.4L406.45 -3.4L407.8 -3.49Q407.97 -2.31 408.7 -1.66Q409.42 -1.02 410.7 -1.02L410.7 -1.02Q411.81 -1.02 412.43 -1.45Q413.05 -1.87 413.05 -2.7L413.05 -2.7Q413.05 -3.19 412.82 -3.58Q412.59 -3.96 411.94 -4.28Q411.28 -4.6 410.01 -4.92L410.01 -4.92Q408.78 -5.23 408.05 -5.61Q407.32 -5.98 407 -6.52Q406.68 -7.06 406.68 -7.86L406.68 -7.86Q406.68 -8.76 407.11 -9.44Q407.53 -10.12 408.33 -10.51Q409.12 -10.89 410.22 -10.89L410.22 -10.89Q411.39 -10.89 412.23 -10.45Q413.07 -10 413.56 -9.24Q414.06 -8.47 414.18 -7.5L414.18 -7.5L412.83 -7.41Q412.69 -8.38 412.04 -9.01Q411.39 -9.63 410.19 -9.63L410.19 -9.63Q409.2 -9.63 408.61 -9.16Q408.03 -8.68 408.03 -7.92L408.03 -7.92Q408.03 -7.42 408.26 -7.1Q408.49 -6.78 409.09 -6.53Q409.69 -6.28 410.82 -6L410.82 -6Q412.15 -5.67 412.94 -5.21Q413.73 -4.75 414.07 -4.15Q414.4 -3.55 414.4 -2.79L414.4 -2.79Q414.4 -1.86 413.92 -1.18Q413.44 -0.49 412.6 -0.13Q411.76 0.24 410.67 0.24ZM426.15 0L422.76 0L422.76 -10.65L426.06 -10.65Q428.52 -10.65 429.85 -9.26Q431.17 -7.87 431.17 -5.31L431.17 -5.31Q431.17 -2.76 429.87 -1.38Q428.56 0 426.15 0L426.15 0ZM424.05 -9.39L424.05 -1.26L426.06 -1.26Q429.82 -1.26 429.82 -5.31L429.82 -5.31Q429.82 -9.39 426.06 -9.39L426.06 -9.39L424.05 -9.39ZM435.84 0L434.55 0L434.55 -10.65L435.84 -10.65L435.84 0ZM443.25 0.24L443.25 0.24Q442.02 0.24 441.1 -0.22Q440.19 -0.69 439.66 -1.51Q439.12 -2.32 439.03 -3.4L439.03 -3.4L440.38 -3.49Q440.55 -2.31 441.28 -1.66Q442 -1.02 443.28 -1.02L443.28 -1.02Q444.39 -1.02 445.01 -1.45Q445.63 -1.87 445.63 -2.7L445.63 -2.7Q445.63 -3.19 445.4 -3.58Q445.17 -3.96 444.52 -4.28Q443.86 -4.6 442.59 -4.92L442.59 -4.92Q441.36 -5.23 440.63 -5.61Q439.9 -5.98 439.58 -6.52Q439.26 -7.06 439.26 -7.86L439.26 -7.86Q439.26 -8.76 439.69 -9.44Q440.11 -10.12 440.91 -10.51Q441.7 -10.89 442.8 -10.89L442.8 -10.89Q443.97 -10.89 444.81 -10.45Q445.65 -10 446.14 -9.24Q446.64 -8.47 446.76 -7.5L446.76 -7.5L445.41 -7.41Q445.27 -8.38 444.62 -9.01Q443.97 -9.63 442.77 -9.63L442.77 -9.63Q441.78 -9.63 441.19 -9.16Q440.61 -8.68 440.61 -7.92L440.61 -7.92Q440.61 -7.42 440.84 -7.1Q441.07 -6.78 441.67 -6.53Q442.27 -6.28 443.4 -6L443.4 -6Q444.73 -5.67 445.52 -5.21Q446.31 -4.75 446.65 -4.15Q446.98 -3.55 446.98 -2.79L446.98 -2.79Q446.98 -1.86 446.5 -1.18Q446.02 -0.49 445.18 -0.13Q444.34 0.24 443.25 0.24ZM450.27 0L448.86 0L452.7 -10.65L454.44 -10.65L458.28 0L456.87 0L455.8 -3.03L451.33 -3.03L450.27 0ZM453.57 -9.52L451.77 -4.29L455.37 -4.29L453.57 -9.52ZM462.15 0L460.86 0L460.86 -10.65L464.68 -10.65Q466.47 -10.65 467.46 -9.79Q468.45 -8.94 468.45 -7.42L468.45 -7.42Q468.45 -5.88 467.46 -5.01Q466.47 -4.14 464.68 -4.14L464.68 -4.14L462.15 -4.14L462.15 0ZM462.15 -9.39L462.15 -5.4L464.68 -5.4Q467.1 -5.4 467.1 -7.42L467.1 -7.42Q467.1 -9.39 464.68 -9.39L464.68 -9.39L462.15 -9.39ZM472.8 0L471.51 0L471.51 -10.65L475.33 -10.65Q477.12 -10.65 478.11 -9.79Q479.1 -8.94 479.1 -7.42L479.1 -7.42Q479.1 -5.88 478.11 -5.01Q477.12 -4.14 475.33 -4.14L475.33 -4.14L472.8 -4.14L472.8 0ZM472.8 -9.39L472.8 -5.4L475.33 -5.4Q477.75 -5.4 477.75 -7.42L477.75 -7.42Q477.75 -9.39 475.33 -9.39L475.33 -9.39L472.8 -9.39ZM488.97 0L482.16 0L482.16 -10.65L488.85 -10.65L488.85 -9.39L483.45 -9.39L483.45 -5.95L488.67 -5.95L488.67 -4.72L483.45 -4.72L483.45 -1.26L488.97 -1.26L488.97 0ZM492.73 0L491.32 0L495.16 -10.65L496.9 -10.65L500.74 0L499.33 0L498.27 -3.03L493.8 -3.03L492.73 0ZM496.03 -9.52L494.23 -4.29L497.83 -4.29L496.03 -9.52ZM504.61 0L503.32 0L503.32 -10.65L507.36 -10.65Q509.04 -10.65 510.01 -9.78Q510.99 -8.91 510.99 -7.42L510.99 -7.42Q510.99 -6.81 510.73 -6.31Q510.48 -5.8 510.07 -5.46Q509.67 -5.11 509.19 -4.98L509.19 -4.98Q509.89 -4.86 510.31 -4.41Q510.72 -3.96 510.79 -3.13L510.79 -3.13L511.09 0L509.79 0L509.52 -3Q509.46 -3.66 509.05 -3.97Q508.63 -4.29 507.7 -4.29L507.7 -4.29L504.61 -4.29L504.61 0ZM504.61 -9.39L504.61 -5.55L507.52 -5.55Q508.5 -5.55 509.07 -6.04Q509.64 -6.54 509.64 -7.45L509.64 -7.45Q509.64 -8.38 509.05 -8.89Q508.47 -9.39 507.36 -9.39L507.36 -9.39L504.61 -9.39ZM515.89 0L514.6 0L514.6 -10.65L515.89 -10.65L515.89 0ZM520.84 0L519.55 0L519.55 -10.65L521.38 -10.65L526.65 -1.29L526.65 -10.65L527.94 -10.65L527.94 0L526.02 0L520.84 -9.18L520.84 0ZM535.74 0.24L535.74 0.24Q534.24 0.24 533.17 -0.48Q532.11 -1.2 531.55 -2.45Q530.98 -3.7 530.98 -5.31L530.98 -5.31Q530.98 -6.91 531.55 -8.17Q532.12 -9.43 533.2 -10.16Q534.27 -10.89 535.77 -10.89L535.77 -10.89Q537.04 -10.89 537.92 -10.42Q538.8 -9.96 539.32 -9.16Q539.83 -8.37 540.03 -7.38L540.03 -7.38L538.68 -7.29Q538.48 -8.32 537.81 -8.98Q537.13 -9.63 535.77 -9.63L535.77 -9.63Q534.55 -9.63 533.8 -9.03Q533.04 -8.43 532.69 -7.45Q532.33 -6.46 532.33 -5.31L532.33 -5.31Q532.33 -4.09 532.69 -3.13Q533.05 -2.16 533.82 -1.59Q534.58 -1.02 535.77 -1.02L535.77 -1.02Q536.71 -1.02 537.4 -1.45Q538.09 -1.87 538.47 -2.59Q538.84 -3.31 538.86 -4.15L538.86 -4.15L535.8 -4.15L535.8 -5.38L540.06 -5.38L540.06 0L539.1 0L539.04 -1.78Q538.63 -0.88 537.73 -0.32Q536.83 0.24 535.74 0.24ZM544.36 0L542.67 0L542.67 -1.69L544.36 -1.69L544.36 0Z" transform="translate(231.49, 784)" fill="#A3A3A3"/>

  <!-- POWERED BY (outlined) -->
  <!-- POWERED BY -->
  <path d="M1.91 0L0.86 0L0.86 -7.1L3.06 -7.1Q3.8 -7.1 4.36 -6.83Q4.91 -6.56 5.22 -6.06Q5.52 -5.57 5.52 -4.89L5.52 -4.89Q5.52 -4.21 5.22 -3.71Q4.91 -3.22 4.36 -2.95Q3.8 -2.69 3.06 -2.69L3.06 -2.69L1.91 -2.69L1.91 0ZM1.91 -6.11L1.91 -3.68L2.95 -3.68Q3.71 -3.68 4.07 -3.99Q4.43 -4.3 4.43 -4.89L4.43 -4.89Q4.43 -5.49 4.07 -5.8Q3.71 -6.11 2.95 -6.11L2.95 -6.11L1.91 -6.11ZM12 0.16L12 0.16Q10.73 0.16 10.05 -0.8Q9.36 -1.76 9.36 -3.54L9.36 -3.54Q9.36 -5.33 10.05 -6.29Q10.73 -7.26 12 -7.26L12 -7.26Q13.27 -7.26 13.96 -6.29Q14.64 -5.33 14.64 -3.54L14.64 -3.54Q14.64 -1.76 13.96 -0.8Q13.27 0.16 12 0.16ZM12 -0.82L12 -0.82Q12.75 -0.82 13.15 -1.5Q13.55 -2.19 13.55 -3.54L13.55 -3.54Q13.55 -4.89 13.15 -5.58Q12.75 -6.28 12 -6.28L12 -6.28Q11.25 -6.28 10.85 -5.58Q10.45 -4.89 10.45 -3.54L10.45 -3.54Q10.45 -2.19 10.85 -1.5Q11.25 -0.82 12 -0.82ZM20.41 0L19.04 0L18.28 -7.1L19.33 -7.1L19.87 -1.35L20.54 -6.3L21.46 -6.3L22.13 -1.35L22.67 -7.1L23.72 -7.1L22.96 0L21.59 0L21 -4.32L20.41 0ZM32.32 0L27.88 0L27.88 -7.1L32.24 -7.1L32.24 -6.11L28.93 -6.11L28.93 -4.04L32.12 -4.04L32.12 -3.08L28.93 -3.08L28.93 -0.99L32.32 -0.99L32.32 0ZM37.72 0L36.67 0L36.67 -7.1L38.88 -7.1Q40 -7.1 40.65 -6.53Q41.3 -5.96 41.3 -4.98L41.3 -4.98Q41.3 -4.34 40.95 -3.89Q40.59 -3.45 40.1 -3.3L40.1 -3.3Q40.62 -3.2 40.89 -2.89Q41.15 -2.59 41.2 -2.02L41.2 -2.02L41.38 0L40.33 0L40.17 -1.82Q40.13 -2.35 39.88 -2.56Q39.62 -2.77 38.96 -2.77L38.96 -2.77L37.72 -2.77L37.72 0ZM37.72 -6.11L37.72 -3.75L38.86 -3.75Q39.52 -3.75 39.87 -4.06Q40.22 -4.37 40.22 -4.93L40.22 -4.93Q40.22 -5.5 39.87 -5.8Q39.52 -6.11 38.86 -6.11L38.86 -6.11L37.72 -6.11ZM50.32 0L45.88 0L45.88 -7.1L50.24 -7.1L50.24 -6.11L46.93 -6.11L46.93 -4.04L50.12 -4.04L50.12 -3.08L46.93 -3.08L46.93 -0.99L50.32 -0.99L50.32 0ZM56.56 0L54.83 0L54.83 -7.1L56.56 -7.1Q57.5 -7.1 58.2 -6.68Q58.89 -6.27 59.27 -5.47Q59.64 -4.68 59.64 -3.54L59.64 -3.54Q59.64 -2.4 59.27 -1.61Q58.89 -0.82 58.2 -0.41Q57.5 0 56.56 0L56.56 0ZM55.88 -6.11L55.88 -0.99L56.53 -0.99Q57.49 -0.99 58.02 -1.62Q58.55 -2.26 58.55 -3.54L58.55 -3.54Q58.55 -4.82 58.02 -5.46Q57.49 -6.11 56.53 -6.11L56.53 -6.11L55.88 -6.11ZM75.13 0L72.83 0L72.83 -7.1L74.89 -7.1Q76.06 -7.1 76.67 -6.59Q77.28 -6.08 77.28 -5.17L77.28 -5.17Q77.28 -4.59 76.93 -4.18Q76.58 -3.77 75.96 -3.66L75.96 -3.66Q76.75 -3.56 77.17 -3.11Q77.58 -2.66 77.58 -1.97L77.58 -1.97Q77.58 -1.03 76.94 -0.51Q76.29 0 75.13 0L75.13 0ZM73.88 -6.12L73.88 -4.09L74.91 -4.09Q75.57 -4.09 75.88 -4.36Q76.19 -4.62 76.19 -5.1L76.19 -5.1Q76.19 -5.59 75.88 -5.85Q75.57 -6.12 74.91 -6.12L74.91 -6.12L73.88 -6.12ZM73.88 -3.12L73.88 -0.98L75.14 -0.98Q75.82 -0.98 76.16 -1.26Q76.49 -1.53 76.49 -2.02L76.49 -2.02Q76.49 -2.54 76.15 -2.83Q75.8 -3.12 75.14 -3.12L75.14 -3.12L73.88 -3.12ZM84.53 0L83.48 0L83.48 -2.92L81.37 -7.1L82.53 -7.1L84 -4L85.47 -7.1L86.63 -7.1L84.53 -2.92L84.53 0ZM102.52 0L101.48 0L101.48 -6.11L99.4 -6.11L99.4 -7.1L104.6 -7.1L104.6 -6.11L102.52 -6.11L102.52 0ZM109.61 0L108.56 0L108.56 -7.1L109.61 -7.1L109.61 -4.06L112.39 -4.06L112.39 -7.1L113.44 -7.1L113.44 0L112.39 0L112.39 -3.08L109.61 -3.08L109.61 0ZM122.32 0L117.88 0L117.88 -7.1L122.24 -7.1L122.24 -6.11L118.93 -6.11L118.93 -4.04L122.12 -4.04L122.12 -3.08L118.93 -3.08L118.93 -0.99L122.32 -0.99L122.32 0ZM137.56 0L135.83 0L135.83 -7.1L137.56 -7.1Q138.5 -7.1 139.2 -6.68Q139.89 -6.27 140.26 -5.47Q140.64 -4.68 140.64 -3.54L140.64 -3.54Q140.64 -2.4 140.26 -1.61Q139.89 -0.82 139.2 -0.41Q138.5 0 137.56 0L137.56 0ZM136.88 -6.11L136.88 -0.99L137.53 -0.99Q138.49 -0.99 139.02 -1.62Q139.55 -2.26 139.55 -3.54L139.55 -3.54Q139.55 -4.82 139.02 -5.46Q138.49 -6.11 137.53 -6.11L137.53 -6.11L136.88 -6.11ZM149.32 0L144.88 0L144.88 -7.1L149.24 -7.1L149.24 -6.11L145.93 -6.11L145.93 -4.04L149.12 -4.04L149.12 -3.08L145.93 -3.08L145.93 -0.99L149.32 -0.99L149.32 0ZM156.62 0L155.38 0L153.27 -7.1L154.38 -7.1L156 -1.4L157.62 -7.1L158.73 -7.1L156.62 0ZM165.09 0.16L165.09 0.16Q164.32 0.16 163.75 -0.15Q163.17 -0.46 162.83 -1.02Q162.49 -1.57 162.43 -2.31L162.43 -2.31L163.51 -2.38Q163.61 -1.62 164.03 -1.22Q164.45 -0.82 165.13 -0.82L165.13 -0.82Q165.78 -0.82 166.14 -1.07Q166.49 -1.33 166.49 -1.81L166.49 -1.81Q166.49 -2.12 166.35 -2.35Q166.2 -2.58 165.81 -2.78Q165.41 -2.98 164.66 -3.19L164.66 -3.19Q163.93 -3.39 163.48 -3.64Q163.02 -3.9 162.81 -4.28Q162.59 -4.65 162.59 -5.2L162.59 -5.2Q162.59 -6.12 163.23 -6.69Q163.86 -7.26 164.98 -7.26L164.98 -7.26Q166.09 -7.26 166.72 -6.62Q167.35 -5.99 167.45 -4.96L167.45 -4.96L166.37 -4.9Q166.29 -5.51 165.94 -5.89Q165.59 -6.28 164.95 -6.28L164.95 -6.28Q164.36 -6.28 164.02 -6Q163.67 -5.72 163.67 -5.25L163.67 -5.25Q163.67 -4.94 163.81 -4.74Q163.95 -4.54 164.3 -4.38Q164.65 -4.22 165.28 -4.05L165.28 -4.05Q166.13 -3.82 166.63 -3.52Q167.13 -3.22 167.35 -2.8Q167.57 -2.39 167.57 -1.81L167.57 -1.81Q167.57 -1.22 167.26 -0.77Q166.95 -0.33 166.4 -0.08Q165.84 0.16 165.09 0.16ZM172.33 0L171.24 0L173.32 -7.1L174.68 -7.1L176.76 0L175.67 0L175.16 -1.85L172.84 -1.85L172.33 0ZM174.89 -2.82L174 -6.01L173.11 -2.82L174.89 -2.82ZM192.03 0.16L192.03 0.16Q191.17 0.16 190.58 -0.29Q189.98 -0.74 189.67 -1.57Q189.36 -2.4 189.36 -3.54L189.36 -3.54Q189.36 -4.69 189.67 -5.52Q189.98 -6.36 190.58 -6.81Q191.17 -7.26 192.03 -7.26L192.03 -7.26Q193 -7.26 193.66 -6.62Q194.32 -5.99 194.54 -4.83L194.54 -4.83L193.44 -4.77Q193.29 -5.51 192.92 -5.89Q192.54 -6.28 192.03 -6.28L192.03 -6.28Q191.26 -6.28 190.86 -5.56Q190.45 -4.85 190.45 -3.54L190.45 -3.54Q190.45 -2.23 190.86 -1.52Q191.26 -0.82 192.03 -0.82L192.03 -0.82Q192.58 -0.82 192.97 -1.24Q193.36 -1.66 193.49 -2.47L193.49 -2.47L194.58 -2.42Q194.4 -1.2 193.73 -0.52Q193.05 0.16 192.03 0.16ZM201 0.16L201 0.16Q199.73 0.16 199.05 -0.8Q198.36 -1.76 198.36 -3.54L198.36 -3.54Q198.36 -5.33 199.05 -6.29Q199.73 -7.26 201 -7.26L201 -7.26Q202.27 -7.26 202.96 -6.29Q203.64 -5.33 203.64 -3.54L203.64 -3.54Q203.64 -1.76 202.96 -0.8Q202.27 0.16 201 0.16ZM201 -0.82L201 -0.82Q201.75 -0.82 202.15 -1.5Q202.55 -2.19 202.55 -3.54L202.55 -3.54Q202.55 -4.89 202.15 -5.58Q201.75 -6.28 201 -6.28L201 -6.28Q200.25 -6.28 199.85 -5.58Q199.45 -4.89 199.45 -3.54L199.45 -3.54Q199.45 -2.19 199.85 -1.5Q200.25 -0.82 201 -0.82ZM210.4 -0.86L209.6 -0.86L208.49 -5.48L208.49 0L207.48 0L207.48 -7.1L208.88 -7.1L210 -2.51L211.12 -7.1L212.52 -7.1L212.52 0L211.51 0L211.51 -5.48L210.4 -0.86ZM219.4 -0.86L218.6 -0.86L217.49 -5.48L217.49 0L216.48 0L216.48 -7.1L217.88 -7.1L219 -2.51L220.12 -7.1L221.52 -7.1L221.52 0L220.51 0L220.51 -5.48L219.4 -0.86ZM228 0.16L228 0.16Q226.87 0.16 226.23 -0.53Q225.58 -1.23 225.58 -2.47L225.58 -2.47L225.58 -7.1L226.63 -7.1L226.63 -2.43Q226.63 -1.65 226.98 -1.24Q227.33 -0.82 228 -0.82L228 -0.82Q228.67 -0.82 229.02 -1.24Q229.37 -1.65 229.37 -2.43L229.37 -2.43L229.37 -7.1L230.42 -7.1L230.42 -2.47Q230.42 -1.23 229.78 -0.53Q229.13 0.16 228 0.16ZM235.71 0L234.68 0L234.68 -7.1L235.96 -7.1L238.29 -1.49L238.29 -7.1L239.32 -7.1L239.32 0L238.04 0L235.71 -5.61L235.71 0ZM248.22 0L243.78 0L243.78 -0.99L245.48 -0.99L245.48 -6.11L243.78 -6.11L243.78 -7.1L248.22 -7.1L248.22 -6.11L246.52 -6.11L246.52 -0.99L248.22 -0.99L248.22 0ZM255.52 0L254.48 0L254.48 -6.11L252.4 -6.11L252.4 -7.1L257.6 -7.1L257.6 -6.11L255.52 -6.11L255.52 0ZM264.53 0L263.48 0L263.48 -2.92L261.37 -7.1L262.53 -7.1L264 -4L265.47 -7.1L266.63 -7.1L264.53 -2.92L264.53 0Z" transform="translate(370.5, 825)" fill="#525252"/>

  <!-- ============================================ -->
  <!-- LOWER GRADIENT BAR                           -->
  <!-- ============================================ -->
  <rect x="120" y="855" width="768" height="2" rx="1" fill="url(#aztecGradient)" opacity="0.4"/>

  <!-- ============================================ -->
  <!-- SPONSORS & PARTNERS (outlined)              -->
  <!-- ============================================ -->
  <!-- SPONSORS & PARTNERS -->
  <path d="M2.78 0.14L2.78 0.14Q2.09 0.14 1.57 -0.13Q1.05 -0.41 0.75 -0.91Q0.44 -1.41 0.39 -2.08L0.39 -2.08L1.36 -2.14Q1.45 -1.46 1.83 -1.1Q2.21 -0.74 2.82 -0.74L2.82 -0.74Q3.4 -0.74 3.72 -0.97Q4.04 -1.2 4.04 -1.63L4.04 -1.63Q4.04 -1.91 3.91 -2.12Q3.78 -2.32 3.42 -2.5Q3.07 -2.68 2.39 -2.87L2.39 -2.87Q1.74 -3.05 1.33 -3.28Q0.92 -3.51 0.72 -3.85Q0.53 -4.19 0.53 -4.68L0.53 -4.68Q0.53 -5.51 1.1 -6.02Q1.67 -6.53 2.68 -6.53L2.68 -6.53Q3.68 -6.53 4.25 -5.96Q4.82 -5.39 4.91 -4.46L4.91 -4.46L3.93 -4.41Q3.86 -4.96 3.55 -5.31Q3.23 -5.65 2.66 -5.65L2.66 -5.65Q2.12 -5.65 1.81 -5.4Q1.5 -5.15 1.5 -4.73L1.5 -4.73Q1.5 -4.45 1.63 -4.27Q1.76 -4.09 2.07 -3.94Q2.39 -3.8 2.95 -3.65L2.95 -3.65Q3.72 -3.44 4.17 -3.17Q4.62 -2.9 4.82 -2.52Q5.01 -2.15 5.01 -1.63L5.01 -1.63Q5.01 -1.1 4.73 -0.7Q4.46 -0.3 3.96 -0.08Q3.46 0.14 2.78 0.14ZM9.82 0L8.87 0L8.87 -6.39L10.85 -6.39Q11.52 -6.39 12.02 -6.15Q12.52 -5.9 12.79 -5.46Q13.07 -5.01 13.07 -4.4L13.07 -4.4Q13.07 -3.79 12.79 -3.34Q12.52 -2.9 12.02 -2.66Q11.52 -2.42 10.85 -2.42L10.85 -2.42L9.82 -2.42L9.82 0ZM9.82 -5.5L9.82 -3.31L10.76 -3.31Q11.44 -3.31 11.76 -3.59Q12.09 -3.87 12.09 -4.4L12.09 -4.4Q12.09 -4.94 11.76 -5.22Q11.44 -5.5 10.76 -5.5L10.76 -5.5L9.82 -5.5ZM18.9 0.14L18.9 0.14Q17.76 0.14 17.14 -0.72Q16.52 -1.58 16.52 -3.19L16.52 -3.19Q16.52 -4.8 17.14 -5.67Q17.76 -6.53 18.9 -6.53L18.9 -6.53Q20.04 -6.53 20.66 -5.67Q21.28 -4.8 21.28 -3.19L21.28 -3.19Q21.28 -1.58 20.66 -0.72Q20.04 0.14 18.9 0.14ZM18.9 -0.74L18.9 -0.74Q19.58 -0.74 19.93 -1.35Q20.3 -1.97 20.3 -3.19L20.3 -3.19Q20.3 -4.4 19.93 -5.03Q19.58 -5.65 18.9 -5.65L18.9 -5.65Q18.23 -5.65 17.86 -5.03Q17.51 -4.4 17.51 -3.19L17.51 -3.19Q17.51 -1.97 17.86 -1.35Q18.23 -0.74 18.9 -0.74ZM25.84 0L24.91 0L24.91 -6.39L26.06 -6.39L28.16 -1.34L28.16 -6.39L29.09 -6.39L29.09 0L27.94 0L25.84 -5.05L25.84 0ZM35.18 0.14L35.18 0.14Q34.49 0.14 33.97 -0.13Q33.45 -0.41 33.15 -0.91Q32.84 -1.41 32.79 -2.08L32.79 -2.08L33.76 -2.14Q33.85 -1.46 34.23 -1.1Q34.6 -0.74 35.22 -0.74L35.22 -0.74Q35.8 -0.74 36.12 -0.97Q36.44 -1.2 36.44 -1.63L36.44 -1.63Q36.44 -1.91 36.31 -2.12Q36.18 -2.32 35.82 -2.5Q35.47 -2.68 34.79 -2.87L34.79 -2.87Q34.14 -3.05 33.73 -3.28Q33.32 -3.51 33.12 -3.85Q32.93 -4.19 32.93 -4.68L32.93 -4.68Q32.93 -5.51 33.5 -6.02Q34.07 -6.53 35.08 -6.53L35.08 -6.53Q36.08 -6.53 36.65 -5.96Q37.21 -5.39 37.31 -4.46L37.31 -4.46L36.33 -4.41Q36.26 -4.96 35.95 -5.31Q35.63 -5.65 35.06 -5.65L35.06 -5.65Q34.52 -5.65 34.21 -5.4Q33.9 -5.15 33.9 -4.73L33.9 -4.73Q33.9 -4.45 34.03 -4.27Q34.16 -4.09 34.47 -3.94Q34.78 -3.8 35.35 -3.65L35.35 -3.65Q36.12 -3.44 36.57 -3.17Q37.02 -2.9 37.21 -2.52Q37.41 -2.15 37.41 -1.63L37.41 -1.63Q37.41 -1.1 37.13 -0.7Q36.85 -0.3 36.36 -0.08Q35.86 0.14 35.18 0.14ZM43.2 0.14L43.2 0.14Q42.06 0.14 41.44 -0.72Q40.82 -1.58 40.82 -3.19L40.82 -3.19Q40.82 -4.8 41.44 -5.67Q42.06 -6.53 43.2 -6.53L43.2 -6.53Q44.34 -6.53 44.96 -5.67Q45.58 -4.8 45.58 -3.19L45.58 -3.19Q45.58 -1.58 44.96 -0.72Q44.34 0.14 43.2 0.14ZM43.2 -0.74L43.2 -0.74Q43.88 -0.74 44.24 -1.35Q44.6 -1.97 44.6 -3.19L44.6 -3.19Q44.6 -4.4 44.24 -5.03Q43.88 -5.65 43.2 -5.65L43.2 -5.65Q42.53 -5.65 42.17 -5.03Q41.81 -4.4 41.81 -3.19L41.81 -3.19Q41.81 -1.97 42.17 -1.35Q42.53 -0.74 43.2 -0.74ZM50.15 0L49.2 0L49.2 -6.39L51.19 -6.39Q52.2 -6.39 52.79 -5.88Q53.37 -5.36 53.37 -4.48L53.37 -4.48Q53.37 -3.91 53.05 -3.51Q52.73 -3.11 52.29 -2.97L52.29 -2.97Q52.76 -2.88 53 -2.61Q53.24 -2.33 53.28 -1.82L53.28 -1.82L53.44 0L52.5 0L52.35 -1.64Q52.32 -2.12 52.09 -2.3Q51.86 -2.49 51.26 -2.49L51.26 -2.49L50.15 -2.49L50.15 0ZM50.15 -5.5L50.15 -3.38L51.17 -3.38Q51.77 -3.38 52.08 -3.65Q52.4 -3.93 52.4 -4.44L52.4 -4.44Q52.4 -4.95 52.08 -5.22Q51.77 -5.5 51.17 -5.5L51.17 -5.5L50.15 -5.5ZM59.48 0.14L59.48 0.14Q58.79 0.14 58.27 -0.13Q57.75 -0.41 57.45 -0.91Q57.14 -1.41 57.09 -2.08L57.09 -2.08L58.06 -2.14Q58.15 -1.46 58.53 -1.1Q58.91 -0.74 59.52 -0.74L59.52 -0.74Q60.1 -0.74 60.42 -0.97Q60.74 -1.2 60.74 -1.63L60.74 -1.63Q60.74 -1.91 60.61 -2.12Q60.48 -2.32 60.12 -2.5Q59.77 -2.68 59.09 -2.87L59.09 -2.87Q58.44 -3.05 58.03 -3.28Q57.62 -3.51 57.42 -3.85Q57.23 -4.19 57.23 -4.68L57.23 -4.68Q57.23 -5.51 57.8 -6.02Q58.37 -6.53 59.38 -6.53L59.38 -6.53Q60.38 -6.53 60.95 -5.96Q61.52 -5.39 61.61 -4.46L61.61 -4.46L60.63 -4.41Q60.56 -4.96 60.25 -5.31Q59.93 -5.65 59.36 -5.65L59.36 -5.65Q58.82 -5.65 58.51 -5.4Q58.2 -5.15 58.2 -4.73L58.2 -4.73Q58.2 -4.45 58.33 -4.27Q58.46 -4.09 58.77 -3.94Q59.09 -3.8 59.65 -3.65L59.65 -3.65Q60.42 -3.44 60.87 -3.17Q61.32 -2.9 61.52 -2.52Q61.71 -2.15 61.71 -1.63L61.71 -1.63Q61.71 -1.1 61.43 -0.7Q61.16 -0.3 60.66 -0.08Q60.16 0.14 59.48 0.14ZM75.02 0.14L75.02 0.14Q74.09 0.14 73.57 -0.3Q73.04 -0.74 73.04 -1.55L73.04 -1.55Q73.04 -1.97 73.17 -2.3Q73.29 -2.62 73.57 -2.91Q73.85 -3.2 74.31 -3.53L74.31 -3.53Q74.02 -3.91 73.85 -4.24Q73.67 -4.58 73.67 -5L73.67 -5Q73.67 -5.72 74.11 -6.12Q74.55 -6.53 75.32 -6.53L75.32 -6.53Q76.1 -6.53 76.49 -6.15Q76.89 -5.77 76.89 -5.13L76.89 -5.13Q76.89 -4.6 76.57 -4.19Q76.26 -3.77 75.56 -3.31L75.56 -3.31L76.83 -1.67Q77.14 -2.08 77.15 -2.9L77.15 -2.9L78.03 -2.8Q78.01 -2.27 77.83 -1.78Q77.64 -1.29 77.36 -0.95L77.36 -0.95L78.14 0L77.09 0L76.78 -0.39Q76.53 -0.15 76.09 0Q75.65 0.14 75.02 0.14ZM75.09 -3.94L75.09 -3.94Q75.56 -4.23 75.75 -4.48Q75.95 -4.73 75.95 -5.05L75.95 -5.05Q75.95 -5.35 75.78 -5.5Q75.62 -5.66 75.32 -5.66L75.32 -5.66Q74.99 -5.66 74.81 -5.49Q74.63 -5.31 74.63 -5L74.63 -5Q74.63 -4.76 74.73 -4.52Q74.83 -4.28 75.09 -3.94ZM75.13 -0.71L75.13 -0.71Q75.54 -0.71 75.81 -0.81Q76.08 -0.91 76.23 -1.05L76.23 -1.05L74.82 -2.85Q74.39 -2.57 74.21 -2.28Q74.02 -1.99 74.02 -1.61L74.02 -1.61Q74.02 -1.21 74.29 -0.96Q74.56 -0.71 75.13 -0.71ZM90.82 0L89.87 0L89.87 -6.39L91.85 -6.39Q92.52 -6.39 93.02 -6.15Q93.52 -5.9 93.79 -5.46Q94.07 -5.01 94.07 -4.4L94.07 -4.4Q94.07 -3.79 93.79 -3.34Q93.52 -2.9 93.02 -2.66Q92.52 -2.42 91.85 -2.42L91.85 -2.42L90.82 -2.42L90.82 0ZM90.82 -5.5L90.82 -3.31L91.76 -3.31Q92.44 -3.31 92.76 -3.59Q93.09 -3.87 93.09 -4.4L93.09 -4.4Q93.09 -4.94 92.76 -5.22Q92.44 -5.5 91.76 -5.5L91.76 -5.5L90.82 -5.5ZM98.4 0L97.42 0L99.29 -6.39L100.51 -6.39L102.38 0L101.4 0L100.94 -1.67L98.86 -1.67L98.4 0ZM100.7 -2.54L99.9 -5.41L99.1 -2.54L100.7 -2.54ZM106.85 0L105.9 0L105.9 -6.39L107.89 -6.39Q108.9 -6.39 109.49 -5.88Q110.07 -5.36 110.07 -4.48L110.07 -4.48Q110.07 -3.91 109.75 -3.51Q109.43 -3.11 108.99 -2.97L108.99 -2.97Q109.46 -2.88 109.7 -2.61Q109.94 -2.33 109.98 -1.82L109.98 -1.82L110.14 0L109.2 0L109.05 -1.64Q109.02 -2.12 108.79 -2.3Q108.56 -2.49 107.96 -2.49L107.96 -2.49L106.85 -2.49L106.85 0ZM106.85 -5.5L106.85 -3.38L107.87 -3.38Q108.47 -3.38 108.78 -3.65Q109.1 -3.93 109.1 -4.44L109.1 -4.44Q109.1 -4.95 108.78 -5.22Q108.47 -5.5 107.87 -5.5L107.87 -5.5L106.85 -5.5ZM116.57 0L115.63 0L115.63 -5.5L113.76 -5.5L113.76 -6.39L118.44 -6.39L118.44 -5.5L116.57 -5.5L116.57 0ZM123.04 0L122.11 0L122.11 -6.39L123.26 -6.39L125.36 -1.34L125.36 -6.39L126.29 -6.39L126.29 0L125.14 0L123.04 -5.05L123.04 0ZM134.39 0L130.39 0L130.39 -6.39L134.32 -6.39L134.32 -5.5L131.34 -5.5L131.34 -3.64L134.21 -3.64L134.21 -2.77L131.34 -2.77L131.34 -0.89L134.39 -0.89L134.39 0ZM139.25 0L138.3 0L138.3 -6.39L140.29 -6.39Q141.3 -6.39 141.89 -5.88Q142.47 -5.36 142.47 -4.48L142.47 -4.48Q142.47 -3.91 142.15 -3.51Q141.83 -3.11 141.39 -2.97L141.39 -2.97Q141.86 -2.88 142.1 -2.61Q142.34 -2.33 142.38 -1.82L142.38 -1.82L142.54 0L141.6 0L141.45 -1.64Q141.42 -2.12 141.19 -2.3Q140.96 -2.49 140.36 -2.49L140.36 -2.49L139.25 -2.49L139.25 0ZM139.25 -5.5L139.25 -3.38L140.27 -3.38Q140.87 -3.38 141.18 -3.65Q141.5 -3.93 141.5 -4.44L141.5 -4.44Q141.5 -4.95 141.18 -5.22Q140.87 -5.5 140.27 -5.5L140.27 -5.5L139.25 -5.5ZM148.58 0.14L148.58 0.14Q147.89 0.14 147.37 -0.13Q146.85 -0.41 146.55 -0.91Q146.24 -1.41 146.19 -2.08L146.19 -2.08L147.16 -2.14Q147.25 -1.46 147.63 -1.1Q148.01 -0.74 148.62 -0.74L148.62 -0.74Q149.2 -0.74 149.52 -0.97Q149.84 -1.2 149.84 -1.63L149.84 -1.63Q149.84 -1.91 149.71 -2.12Q149.58 -2.32 149.22 -2.5Q148.87 -2.68 148.19 -2.87L148.19 -2.87Q147.54 -3.05 147.13 -3.28Q146.72 -3.51 146.52 -3.85Q146.33 -4.19 146.33 -4.68L146.33 -4.68Q146.33 -5.51 146.9 -6.02Q147.47 -6.53 148.48 -6.53L148.48 -6.53Q149.48 -6.53 150.05 -5.96Q150.62 -5.39 150.71 -4.46L150.71 -4.46L149.73 -4.41Q149.66 -4.96 149.35 -5.31Q149.03 -5.65 148.46 -5.65L148.46 -5.65Q147.92 -5.65 147.61 -5.4Q147.3 -5.15 147.3 -4.73L147.3 -4.73Q147.3 -4.45 147.43 -4.27Q147.56 -4.09 147.87 -3.94Q148.19 -3.8 148.75 -3.65L148.75 -3.65Q149.52 -3.44 149.97 -3.17Q150.42 -2.9 150.62 -2.52Q150.81 -2.15 150.81 -1.63L150.81 -1.63Q150.81 -1.1 150.53 -0.7Q150.26 -0.3 149.76 -0.08Q149.26 0.14 148.58 0.14Z" transform="translate(428.4, 895)" fill="#737373"/>

  <!-- ============================================ -->
  <!-- LOGO ROW — 5 logos, visually balanced        -->
  <!-- Order: v0, Digital Canvas, DevSA,            -->
  <!--        Geekdom, Lean Techniques               -->
  <!-- Logo widths: 67+119+67+132+186=571, gaps: 49px -->
  <!-- Visual vertical center: y ≈ 947             -->
  <!-- ============================================ -->

  <!-- ——— 1. v0 by Vercel ——— -->
  <!-- viewBox 24×18, paths span y:6–18 → scale 2.8 -->
  <!-- Content offset: 6×2.8=16.8px → y=914 aligns center to 947 -->
  <g transform="translate(120, 914)">
    <g transform="scale(2.8)">
      <path d="M14.066 6.028v2.22h5.729q.075-.001.148.005l-5.853 5.752a2 2 0 0 1-.024-.309V8.247h-2.353v5.45c0 2.322 1.935 4.222 4.258 4.222h5.675v-2.22h-5.675q-.03 0-.059-.003l5.729-5.629q.006.082.006.166v5.465H24v-5.465a4.204 4.204 0 0 0-4.205-4.205zM0 8.245l8.28 9.266c.839.94 2.396.346 2.396-.914V8.245H8.19v5.44l-4.86-5.44Z" fill="#FFFFFF"/>
    </g>
  </g>

  <!-- ——— 2. Digital Canvas Network ——— -->
  <!-- viewBox 394.95×165.31 → scale 0.302 = 119×50px -->
  <g transform="translate(236, 922) scale(0.302)">
    <g fill="#FFFFFF">
      <path d="M0,3.03h11.94c8.4,0,41.88,0,41.88,35.21s-31.06,35.61-37.74,35.61H0V3.03Z"/>
      <path d="M62.42,3.03h25.29v70.82h-25.29V3.03Z"/>
      <path d="M96.31,39.56c0-22.46,16.89-37.74,40.67-37.74v37.43h26.91v25.7c-6.37,6.17-16.89,10.12-28.33,10.12-23.98,0-39.25-13.96-39.25-35.51Z"/>
      <path d="M173.2,3.03h25.29v70.82h-25.29V3.03Z"/>
      <path d="M207.4,3.03h62.02v24.89h-17.5v45.93h-25.29V27.92h-19.22V3.03Z"/>
      <path d="M299.97,0l37.53,73.85h-75.07L299.97,0Z"/>
      <path d="M344.08,3.03h25.29v45.93h25.49v24.89h-50.79V3.03Z"/>
    </g>
    <g fill="#FFFFFF">
      <path d="M52.86,158.42c-5.17,4.59-11.81,6.89-19.9,6.89-6.55,0-12.35-1.54-17.4-4.63-5.04-3.08-8.9-7.34-11.56-12.77-2.67-5.43-4-11.52-4-18.26s1.35-12.85,4.05-18.31c2.7-5.46,6.55-9.75,11.57-12.87,5.01-3.12,10.79-4.67,17.35-4.67,7.84,0,14.34,2.2,19.52,6.6,5.17,4.4,8.47,10.59,9.88,18.55l-15.13.58c-.84-4.3-2.52-7.61-5.06-9.93-2.54-2.31-5.7-3.47-9.49-3.47s-7.1,1-9.73,2.99c-2.64,1.99-4.61,4.77-5.93,8.34-1.32,3.57-1.98,7.63-1.98,12.19s.66,8.58,1.98,12.05c1.32,3.47,3.29,6.22,5.93,8.24,2.63,2.03,5.88,3.04,9.73,3.04s7.24-1.25,9.78-3.76c2.54-2.51,4.16-6.07,4.87-10.7l15.32.58c-1.35,8.29-4.61,14.73-9.78,19.32Z"/>
      <path d="M90.4,95.34h17.35l24.58,68.43h-15.13l-5.01-14.55h-26.31l-5.11,14.55h-15.03l24.67-68.43ZM108.14,137.27l-9.06-26.6-9.16,26.6h18.22Z"/>
      <path d="M156.52,95.34l26.99,46.84v-46.84h14.65v68.43h-16.67l-26.5-45.3v45.3h-14.65v-68.43h16.19Z"/>
      <path d="M222.73,95.34l18.31,51.85,18.02-51.85h15.23l-24.67,68.43h-17.15l-24.77-68.43h15.04Z"/>
      <path d="M294.15,95.34h17.35l24.58,68.43h-15.13l-5.01-14.55h-26.31l-5.11,14.55h-15.04l24.67-68.43ZM311.88,137.27l-9.06-26.6-9.16,26.6h18.22Z"/>
      <path d="M356.6,147c1.28,1.8,3,3.2,5.16,4.19,2.15,1,4.64,1.49,7.47,1.49,2.12,0,4.01-.29,5.69-.87,1.67-.58,2.94-1.44,3.81-2.6.87-1.16,1.3-2.54,1.3-4.14,0-2.51-1.16-4.56-3.47-6.17-2.31-1.6-6.17-3.05-11.57-4.34-7.9-1.86-13.94-4.43-18.12-7.71-4.18-3.28-6.27-7.55-6.27-12.82,0-4.11,1.09-7.69,3.28-10.75,2.18-3.05,5.24-5.4,9.16-7.04,3.92-1.64,8.42-2.46,13.49-2.46s9.49.96,13.44,2.89c3.95,1.93,7.13,4.64,9.54,8.14,2.41,3.5,3.87,7.53,4.38,12.1l-14.65.67c-.26-2.31-.95-4.37-2.07-6.17-1.12-1.8-2.62-3.16-4.48-4.1-1.87-.93-4.02-1.4-6.46-1.4-3.21,0-5.81.77-7.81,2.31-1.99,1.54-2.93,3.57-2.8,6.07.06,1.67.67,3.08,1.83,4.24,1.16,1.16,2.63,2.09,4.43,2.79,1.8.71,4.11,1.41,6.94,2.12.32.06.67.16,1.06.29,7.97,1.8,14.13,4.4,18.5,7.81,4.37,3.41,6.55,7.71,6.55,12.91,0,4.24-1.16,7.9-3.47,10.99-2.31,3.08-5.44,5.43-9.4,7.04-3.95,1.61-8.4,2.41-13.35,2.41-5.59,0-10.54-.96-14.84-2.89-4.31-1.93-7.73-4.69-10.26-8.29-2.54-3.6-3.97-7.74-4.29-12.43l14.65-.77c.45,2.51,1.32,4.66,2.6,6.46Z"/>
    </g>
  </g>

  <!-- ——— 3. DevSA (original brand colors) ——— -->
  <!-- viewBox 735.7×551.8 → scale 0.0906 = 67×50px -->
  <g transform="translate(404, 922) scale(0.0906)">
    <path d="M0,107.3h735.7v413.8c0,16.8-13.8,30.7-30.7,30.7H30.6c-16.9,0-30.6-13.8-30.6-30.7V107.3Z" fill="#000000"/>
    <rect x="250.3" width="235" height="91.9" fill="#EF426F"/>
    <path d="M235,0H30.6C13.8,0,0,13.8,0,30.6v61.3h235V0Z" fill="#00B2A9"/>
    <path d="M705,0h-204.5v91.9h235.1V30.6c0-16.9-13.8-30.6-30.7-30.6h0Z" fill="#FF8200"/>
    <g>
      <path d="M352.5,459.8c0,9.2,6.1,15.3,15.3,15.3h245.2c9.2,0,15.3-6.1,15.3-15.3v-46c0-9.2-6.1-15.3-15.3-15.3h-245.3c-9.2,0-15.3,6.1-15.3,15.3v46h0Z" fill="#eeeeee"/>
      <path d="M193.1,320.3l-95,95c-7.7,7.7-7.7,18.4,0,24.5l27.6,27.6c7.7,7.7,18.4,7.7,24.5,0l134.9-134.9c6.8-5.6,7.7-15.7,2.1-22.4-.6-.8-1.3-1.5-2.1-2.1l-134.9-134.9c-6.1-6.1-18.4-6.1-24.5,0l-27.6,27.6c-7.7,6.1-7.7,16.9,0,24.5l95,95h0Z" fill="#eeeeee"/>
      <path d="M370.3,359.6c-11.3-8.5-17.2-20.8-17.8-36.8l49.2,1.1c.5,8.5,4.2,12.8,11,13,2.5,0,4.6-.5,6.4-1.6,1.8-1.1,2.7-3,2.7-5.5,0-3.5-1.7-6.3-5.4-8.6-3.7-2.2-9.5-4.8-17.4-7.8-9.4-3.5-17.1-7-23.2-10.3-6.1-3.3-11.3-8.1-15.6-14.3-4.3-6.2-6.3-14.1-5.9-23.7.2-9.6,2.9-17.7,8-24.3s12-11.6,20.6-14.9c8.6-3.3,18.3-4.8,29-4.6,18.1.4,32.3,4.9,42.8,13.5,10.5,8.6,15.8,20.5,16,35.6l-49.9-1.1c0-4.2-1-7.2-2.9-9-1.9-1.9-4.2-2.8-7-2.9-2,0-3.6.6-4.8,1.9s-2,3.1-2,5.5c0,3.3,1.7,6.1,5.3,8.4,3.6,2.2,9.5,5,17.5,8.2,9.2,3.7,16.8,7.2,22.8,10.5,6,3.3,11.1,7.9,15.4,13.7,4.3,5.8,6.4,13,6.2,21.6-.2,9-2.6,17.1-7.2,24.1-4.6,7.1-11.2,12.5-19.8,16.3-8.6,3.8-18.7,5.6-30.4,5.4-17.7-.4-32.1-4.9-43.4-13.4h0Z" fill="#eeeeee"/>
      <path d="M573.3,348.2l-48.5-.3-7.3,22-47.9-.3,54.1-145.2,52.6.3,52.2,145.8-48.1-.3-7.1-22h0ZM561.4,318l-13.6-40.3-12.7,40.6,26.3-.3h0Z" fill="#eeeeee"/>
    </g>
  </g>

  <!-- ——— 4. Geekdom (inverted to white) ——— -->
  <!-- viewBox 375×142 → scale 0.352 = 132×50px -->
  <g transform="translate(520, 922) scale(0.352)">
    <path d="M37.57,13.73L26.94,5.8c-0.05-0.04-0.12-0.04-0.18,0l-10.63,7.93c-0.05,0.04-0.11,0.04-0.16,0.01l-8.8-5.15C7.07,8.53,6.95,8.6,6.95,8.71v17.25c0,0.11,0.12,0.18,0.21,0.13c3.19-1.7,6.55-2.96,9.99-3.78c5.38-1.28,10.95-1.48,16.39-0.6c1.01,0.16,2.01,0.36,3.01,0.6c3.44,0.82,6.8,2.08,9.99,3.78c0.1,0.05,0.21-0.02,0.21-0.13V8.71c0-0.11-0.12-0.19-0.22-0.13l-8.8,5.15C37.68,13.77,37.62,13.77,37.57,13.73" fill="#FFFFFF"/>
    <path d="M36.58,27.28c-0.02,0-0.05,0-0.07,0c-0.99,0.23-1.98,0.43-2.97,0.59c-5.43,0.88-10.99,0.68-16.35-0.59c-0.02,0-0.05,0-0.07,0c-3.42,0.82-6.76,2.07-9.94,3.76c-0.11,0.06-0.11,0.21,0,0.27c8.19,4.3,17.45,5.73,26.36,4.31c4.47-0.71,8.86-2.15,12.97-4.31c0.11-0.06,0.11-0.21,0-0.27C43.34,29.35,40,28.1,36.58,27.28" fill="#FFFFFF"/>
    <path d="M33.54,92.9V62.83c0-0.24-0.19-0.43-0.43-0.43h-8.95c-2.08,0-4,1.74-4,4V88.9c0,2.44,1.99,4.43,4.43,4.43h8.52C33.35,93.33,33.54,93.14,33.54,92.9 M33.54,48.75v-3.48c0-0.24,0.19-0.43,0.43-0.43h12.34c0.24,0,0.43,0.19,0.43,0.43v74.04c0,7.53-6.11,13.64-13.64,13.64H20.59c-0.24,0-0.43-0.19-0.43-0.43v-12.34c0-0.24,0.19-0.43,0.43-0.43h8.95c2.09,0,4-1.74,4-4v-8.78c0-0.24-0.19-0.43-0.43-0.43H20.59c-7.54,0-13.65-6.11-13.65-13.64V62.83c0-7.53,6.11-13.64,13.65-13.64h12.51C33.35,49.19,33.54,48.99,33.54,48.75" fill="#FFFFFF"/>
    <path d="M69.95,71.26h12.51c0.24,0,0.43-0.19,0.43-0.43v-4.43c0-2.26-1.91-4-4-4h-5.39c-2.08,0-4,1.74-4,4v4.43C69.52,71.06,69.71,71.26,69.95,71.26 M82.47,49.19c7.53,0,13.64,6.11,13.64,13.64v21.21c0,0.24-0.19,0.43-0.43,0.43H69.95c-0.24,0-0.43,0.19-0.43,0.43v4c0,2.44,1.99,4.43,4.43,4.43h15.12c0.24,0,0.43,0.19,0.43,0.43v12.34c0,0.24-0.19,0.43-0.43,0.43H69.95c-7.54,0-13.65-6.11-13.65-13.64V62.83c0-7.53,6.11-13.64,13.65-13.64H82.47z" fill="#FFFFFF"/>
    <path d="M118.27,71.26h12.51c0.24,0,0.43-0.19,0.43-0.43v-4.43c0-2.26-1.91-4-4-4h-5.39c-2.08,0-4,1.74-4,4v4.43C117.84,71.06,118.03,71.26,118.27,71.26 M130.79,49.19c7.53,0,13.64,6.11,13.64,13.64v21.21c0,0.24-0.19,0.43-0.43,0.43h-25.72c-0.24,0-0.43,0.19-0.43,0.43v4c0,2.44,1.99,4.43,4.43,4.43h15.12c0.24,0,0.43,0.19,0.43,0.43v12.34c0,0.24-0.19,0.43-0.43,0.43h-19.12c-7.54,0-13.65-6.11-13.65-13.64V62.83c0-7.53,6.11-13.64,13.65-13.64H130.79z" fill="#FFFFFF"/>
    <path d="M202.62,49.92l-15.75,15.92c-0.12,0.12-0.16,0.31-0.09,0.47l16.33,39.63c0.12,0.29-0.09,0.6-0.4,0.6h-13.31c-0.17,0-0.33-0.11-0.4-0.27l-12.33-29.55c-0.12-0.29-0.49-0.36-0.71-0.14l-8.8,8.8c-0.08,0.08-0.13,0.19-0.13,0.31v20.42c0,0.24-0.19,0.43-0.43,0.43h-12.34c-0.24,0-0.43-0.19-0.43-0.43V27.55c0-0.24,0.19-0.43,0.43-0.43h12.34c0.24,0,0.43,0.19,0.43,0.43v38.14c0,0.39,0.47,0.58,0.74,0.31l16.69-16.69c0.08-0.08,0.19-0.13,0.31-0.13h17.55C202.7,49.18,202.89,49.65,202.62,49.92" fill="#FFFFFF"/>
    <path d="M235.78,92.9V62.83c0-0.24-0.19-0.43-0.43-0.43H227c-2.45,0-4.43,1.98-4.43,4.43v22.51c0,2.08,1.74,4,4,4h8.78C235.58,93.33,235.78,93.14,235.78,92.9 M235.78,48.75V27.55c0-0.24,0.19-0.43,0.43-0.43h12.34c0.24,0,0.43,0.19,0.43,0.43v78.56c0,0.24-0.19,0.43-0.43,0.43H223c-7.54,0-13.65-6.11-13.65-13.64V62.83c0-7.53,6.11-13.64,13.65-13.64h12.34C235.58,49.19,235.78,48.99,235.78,48.75" fill="#FFFFFF"/>
    <path d="M285.83,66.39c0-2.26-1.74-4-3.82-4h-4.95c-2.45,0-4.43,1.98-4.43,4.43v22.51c0,2.08,1.74,4,4,4h4.78c2.44,0,4.43-2,4.43-4.43V66.39z M285.4,49.19c7.63,0,13.82,6.19,13.82,13.82v29.9c0,7.53-6.11,13.64-13.64,13.64h-12.51c-7.54,0-13.65-6.11-13.65-13.64V62.83c0-7.53,6.11-13.64,13.65-13.64H285.4z" fill="#FFFFFF"/>
    <path d="M353.36,49.19c7.53,0,13.64,6.11,13.64,13.64v43.28c0,0.24-0.19,0.43-0.43,0.43h-12.34c-0.24,0-0.43-0.19-0.43-0.43V66.83c0-2.45-1.98-4.43-4.43-4.43c-2.45,0-4.43,1.98-4.43,4.43v39.28c0,0.24-0.19,0.43-0.43,0.43h-12.34c-0.24,0-0.43-0.19-0.43-0.43V66.83c0-2.45-1.98-4.43-4.43-4.43c-2.45,0-4.43,1.98-4.43,4.43v39.28c0,0.24-0.19,0.43-0.43,0.43h-12.34c-0.24,0-0.43-0.19-0.43-0.43V45.27c0-0.24,0.19-0.43,0.43-0.43h12.34c0.24,0,0.43,0.19,0.43,0.43v3.48c0,0.24,0.19,0.43,0.43,0.43h8.43c2.19,0,4.37,0.49,6.4,1.62c0.13,0.07,0.28,0.07,0.41,0c2.03-1.13,4.21-1.62,6.4-1.62H353.36z" fill="#FFFFFF"/>
  </g>

  <!-- ——— 5. Lean Techniques (traced from PNG) ——— -->
  <!-- Potrace viewBox 360×136.8 → effective content ~186×31px -->
  <g transform="translate(701, 932) scale(0.636) translate(-32.16, -44.88)">
    <g transform="translate(0,136.8) scale(0.024,-0.024)" fill="#FFFFFF" stroke="none">
      <path d="M1340 2850 l0 -1640 1491 0 1492 0 -7 46 c-3 26 -6 93 -6 150 l0 104 -1329 0 -1328 0 -7 46 c-8 59 -8 2571 0 2602 l6 22 1344 0 1344 0 0 -690 0 -690 150 0 150 0 0 845 0 845 -1650 0 -1650 0 0 -1640z"/>
      <path d="M5540 3415 l0 -415 245 0 245 0 0 50 0 50 -190 0 -190 0 0 365 0 365 -55 0 -55 0 0 -415z"/>
      <path d="M6320 3415 l0 -415 269 0 269 0 6 16 c4 9 4 32 0 50 l-6 34 -214 0 -215 0 3 138 3 137 213 3 212 2 0 45 0 45 -212 2 -213 3 -3 128 -3 127 215 0 215 0 6 10 c4 6 4 29 0 50 l-7 40 -269 0 -269 0 0 -415z"/>
      <path d="M7381 3808 c-5 -13 -76 -192 -159 -398 -83 -207 -154 -383 -158 -393 l-6 -17 60 0 60 0 35 88 35 87 208 3 209 2 36 -87 35 -88 62 -3 62 -3 -17 44 c-10 23 -85 210 -168 415 l-150 372 -68 0 -67 0 -9 -22z m166 -311 l82 -212 -166 -3 c-91 -1 -168 0 -171 2 -2 3 33 102 79 220 46 118 86 212 89 209 3 -2 42 -100 87 -216z"/>
      <path d="M8070 3415 l0 -415 49 0 50 0 5 18 c3 9 4 153 3 320 -2 166 0 302 4 302 4 0 109 -144 235 -320 l229 -319 53 -1 52 0 0 415 0 415 -55 0 -55 0 -2 -315 -3 -315 -230 315 -230 315 -52 0 -53 0 0 -415z"/>
      <path d="M2030 2860 l0 -680 555 0 555 0 0 80 0 80 -475 0 -475 0 0 600 0 600 -80 0 -80 0 0 -680z"/>
      <path d="M2940 3435 l0 -85 189 0 c104 0 203 -3 220 -6 l31 -6 0 -579 0 -579 85 0 85 0 0 585 0 585 214 0 214 0 5 33 c2 17 2 56 -1 85 l-5 52 -518 0 -519 0 0 -85z"/>
      <path d="M7357 2620 c-298 -105 -385 -474 -166 -705 l49 -52 72 -33 72 -33 96 -5 96 -4 55 15 c72 21 142 69 190 130 50 63 52 58 -37 100 l-77 36 -21 -27 c-28 -37 -45 -50 -91 -72 l-40 -20 -50 0 -50 0 -51 24 -50 23 -32 39 c-80 97 -84 247 -9 346 l32 43 54 28 55 27 50 0 51 0 43 -20 c23 -10 58 -36 76 -56 l34 -38 66 28 c36 15 70 34 76 40 l10 13 -29 39 c-39 54 -86 92 -151 123 l-55 25 -105 3 -105 3 -58 -20z"/>
      <path d="M10599 2621 c-107 -34 -181 -100 -230 -206 l-28 -60 -10 -70 -10 -70 9 -67 c18 -123 71 -219 157 -283 l48 -35 69 -21 68 -22 92 5 91 5 53 25 52 25 35 -38 c42 -47 42 -47 85 -10 l35 29 -39 41 -39 40 26 38 c40 59 65 123 77 199 l11 70 -11 70 c-27 171 -129 294 -279 338 l-55 16 -75 -1 -76 0 -56 -18z m262 -102 l49 -21 36 -40 c20 -23 46 -61 58 -87 l21 -46 0 -110 0 -110 -29 -59 -29 -60 -58 62 c-67 71 -67 71 -102 34 -35 -36 -36 -34 25 -99 l53 -55 -19 -13 c-10 -8 -44 -19 -74 -26 l-55 -11 -55 11 c-107 21 -184 87 -222 189 l-20 53 0 84 0 84 20 54 c62 165 236 237 401 166z"/>
      <path d="M13242 2621 l-53 -18 -36 -34 c-68 -65 -91 -158 -58 -236 31 -74 82 -105 252 -154 174 -50 218 -82 218 -159 0 -48 -26 -85 -78 -112 l-42 -22 -70 0 -70 0 -58 27 c-32 15 -76 40 -97 57 l-38 30 -27 -36 -28 -37 10 -16 c5 -9 29 -31 52 -48 l42 -33 70 -21 70 -21 97 4 97 4 45 23 c82 42 125 99 136 184 l6 42 -12 45 c-25 95 -84 138 -265 190 -232 67 -291 172 -139 245 l39 18 55 0 c75 0 129 -17 189 -58 l50 -35 30 37 31 37 -18 19 c-51 57 -166 97 -277 97 l-70 -1 -53 -18z"/>
      <path d="M5470 2550 l0 -80 120 0 120 0 0 -335 0 -335 95 0 95 0 0 335 0 335 115 0 115 0 0 80 0 80 -330 0 -330 0 0 -80z"/>
      <path d="M6320 2215 l0 -415 295 0 295 0 0 80 0 80 -199 0 -198 0 -7 31 c-3 17 -6 46 -6 64 0 18 3 47 6 64 l7 31 193 0 194 0 0 75 0 75 -194 0 -193 0 -7 42 c-4 22 -4 61 0 85 l6 43 199 0 199 0 0 80 0 80 -295 0 -295 0 0 -415z"/>
      <path d="M8040 2215 l0 -415 90 0 90 0 0 175 0 175 190 0 190 0 0 -175 0 -175 90 0 90 0 0 415 0 415 -90 0 -90 0 0 -160 0 -160 -190 0 -190 0 0 160 0 160 -90 0 -90 0 0 -415z"/>
      <path d="M9030 2215 l0 -415 55 0 55 0 2 326 3 325 235 -325 235 -326 53 0 52 0 0 415 0 415 -55 0 -55 0 0 -321 0 -322 -232 321 -233 322 -57 0 -58 0 0 -415z"/>
      <path d="M9990 2215 l0 -415 55 0 55 0 0 415 0 415 -55 0 -55 0 0 -415z"/>
      <path d="M11394 2615 c-4 -8 -4 -142 -2 -298 l5 -282 21 -55 c12 -30 35 -72 52 -92 l30 -37 58 -28 57 -28 115 0 115 0 50 23 c65 30 118 83 147 146 l23 51 3 308 3 308 -53 -3 -53 -3 -5 -295 -5 -295 -21 -40 c-25 -46 -45 -66 -94 -90 l-35 -18 -70 -1 -70 0 -40 21 c-46 24 -75 53 -101 103 l-19 35 -3 293 -3 292 -50 0 -50 0 -5 -15z"/>
      <path d="M12330 2215 l0 -415 270 0 270 0 0 50 0 50 -220 0 -221 0 3 138 3 137 213 3 212 2 0 45 0 45 -212 2 -213 3 -3 128 -3 127 221 0 220 0 0 50 0 50 -270 0 -270 0 0 -415z"/>
    </g>
  </g>

  <!-- ============================================ -->
  <!-- BOTTOM: Aztec corners + footer               -->
  <!-- ============================================ -->
  <g transform="translate(80, 1050) scale(1,-1)">
    <rect width="8" height="64" fill="#FFFFFF" opacity="0.3"/>
    <rect width="64" height="8" fill="#FFFFFF" opacity="0.3"/>
    <rect x="16" y="16" width="4" height="28" fill="#FF9900" opacity="0.7"/>
    <rect x="16" y="16" width="28" height="4" fill="#FF9900" opacity="0.7"/>
    <rect x="30" y="30" width="3" height="16" fill="#00F2FF" opacity="0.5"/>
    <rect x="30" y="30" width="16" height="3" fill="#00F2FF" opacity="0.5"/>
  </g>
  <g transform="translate(928, 1050) scale(-1,-1)">
    <rect width="8" height="64" fill="#FFFFFF" opacity="0.3"/>
    <rect width="64" height="8" fill="#FFFFFF" opacity="0.3"/>
    <rect x="16" y="16" width="4" height="28" fill="#FF9900" opacity="0.7"/>
    <rect x="16" y="16" width="28" height="4" fill="#FF9900" opacity="0.7"/>
    <rect x="30" y="30" width="3" height="16" fill="#00F2FF" opacity="0.5"/>
    <rect x="30" y="30" width="16" height="3" fill="#00F2FF" opacity="0.5"/>
  </g>

  <!-- FOOTER (outlined) -->
  <!-- Footer -->
  <path d="M3.09 0.16L3.09 0.16Q2.32 0.16 1.75 -0.15Q1.17 -0.46 0.83 -1.02Q0.49 -1.57 0.43 -2.31L0.43 -2.31L1.51 -2.38Q1.61 -1.62 2.03 -1.22Q2.45 -0.82 3.13 -0.82L3.13 -0.82Q3.78 -0.82 4.14 -1.07Q4.49 -1.33 4.49 -1.81L4.49 -1.81Q4.49 -2.12 4.35 -2.35Q4.2 -2.58 3.81 -2.78Q3.41 -2.98 2.66 -3.19L2.66 -3.19Q1.93 -3.39 1.48 -3.64Q1.02 -3.9 0.81 -4.28Q0.59 -4.65 0.59 -5.2L0.59 -5.2Q0.59 -6.12 1.23 -6.69Q1.86 -7.26 2.98 -7.26L2.98 -7.26Q4.09 -7.26 4.72 -6.62Q5.35 -5.99 5.45 -4.96L5.45 -4.96L4.37 -4.9Q4.29 -5.51 3.94 -5.89Q3.59 -6.28 2.95 -6.28L2.95 -6.28Q2.36 -6.28 2.02 -6Q1.67 -5.72 1.67 -5.25L1.67 -5.25Q1.67 -4.94 1.81 -4.74Q1.95 -4.54 2.3 -4.38Q2.65 -4.22 3.28 -4.05L3.28 -4.05Q4.13 -3.82 4.63 -3.52Q5.13 -3.22 5.35 -2.8Q5.57 -2.39 5.57 -1.81L5.57 -1.81Q5.57 -1.22 5.26 -0.77Q4.95 -0.33 4.4 -0.08Q3.84 0.16 3.09 0.16ZM10.83 0L9.74 0L11.82 -7.1L13.18 -7.1L15.26 0L14.17 0L13.66 -1.85L11.34 -1.85L10.83 0ZM13.39 -2.82L12.5 -6.01L11.61 -2.82L13.39 -2.82ZM20.71 0L19.68 0L19.68 -7.1L20.96 -7.1L23.29 -1.49L23.29 -7.1L24.32 -7.1L24.32 0L23.04 0L20.71 -5.61L20.71 0ZM39.33 0L38.24 0L40.32 -7.1L41.68 -7.1L43.76 0L42.67 0L42.16 -1.85L39.84 -1.85L39.33 0ZM41.89 -2.82L41 -6.01L40.11 -2.82L41.89 -2.82ZM49.21 0L48.18 0L48.18 -7.1L49.46 -7.1L51.79 -1.49L51.79 -7.1L52.82 -7.1L52.82 0L51.54 0L49.21 -5.61L49.21 0ZM60.52 0L59.48 0L59.48 -6.11L57.4 -6.11L57.4 -7.1L62.6 -7.1L62.6 -6.11L60.52 -6.11L60.52 0ZM69.5 0.16L69.5 0.16Q68.23 0.16 67.55 -0.8Q66.86 -1.76 66.86 -3.54L66.86 -3.54Q66.86 -5.33 67.55 -6.29Q68.23 -7.26 69.5 -7.26L69.5 -7.26Q70.77 -7.26 71.46 -6.29Q72.14 -5.33 72.14 -3.54L72.14 -3.54Q72.14 -1.76 71.46 -0.8Q70.77 0.16 69.5 0.16ZM69.5 -0.82L69.5 -0.82Q70.25 -0.82 70.65 -1.5Q71.05 -2.19 71.05 -3.54L71.05 -3.54Q71.05 -4.89 70.65 -5.58Q70.25 -6.28 69.5 -6.28L69.5 -6.28Q68.75 -6.28 68.35 -5.58Q67.95 -4.89 67.95 -3.54L67.95 -3.54Q67.95 -2.19 68.35 -1.5Q68.75 -0.82 69.5 -0.82ZM77.71 0L76.68 0L76.68 -7.1L77.96 -7.1L80.29 -1.49L80.29 -7.1L81.32 -7.1L81.32 0L80.04 0L77.71 -5.61L77.71 0ZM90.72 0L86.28 0L86.28 -0.99L87.98 -0.99L87.98 -6.11L86.28 -6.11L86.28 -7.1L90.72 -7.1L90.72 -6.11L89.02 -6.11L89.02 -0.99L90.72 -0.99L90.72 0ZM98 0.16L98 0.16Q96.73 0.16 96.05 -0.8Q95.36 -1.76 95.36 -3.54L95.36 -3.54Q95.36 -5.33 96.05 -6.29Q96.73 -7.26 98 -7.26L98 -7.26Q99.27 -7.26 99.96 -6.29Q100.64 -5.33 100.64 -3.54L100.64 -3.54Q100.64 -1.76 99.96 -0.8Q99.27 0.16 98 0.16ZM98 -0.82L98 -0.82Q98.75 -0.82 99.15 -1.5Q99.55 -2.19 99.55 -3.54L99.55 -3.54Q99.55 -4.89 99.15 -5.58Q98.75 -6.28 98 -6.28L98 -6.28Q97.25 -6.28 96.85 -5.58Q96.45 -4.89 96.45 -3.54L96.45 -3.54Q96.45 -2.19 96.85 -1.5Q97.25 -0.82 98 -0.82ZM107.54 1.62L106.86 1.62L107.42 0L106.84 0L106.84 -1.32L108.16 -1.32L108.16 -0.11L107.54 1.62ZM127.02 0L125.98 0L125.98 -6.11L123.9 -6.11L123.9 -7.1L129.1 -7.1L129.1 -6.11L127.02 -6.11L127.02 0ZM134.61 0L133.45 0L135.32 -3.57L133.48 -7.1L134.67 -7.1L136.01 -4.37L137.35 -7.1L138.52 -7.1L136.68 -3.56L138.55 0L137.36 0L135.99 -2.77L134.61 0ZM155 -1.91L155 -1.91Q154.68 -1.91 154.41 -2.06Q154.14 -2.22 153.98 -2.49Q153.82 -2.76 153.82 -3.08L153.82 -3.08Q153.82 -3.41 153.98 -3.67Q154.14 -3.94 154.41 -4.09Q154.68 -4.25 155 -4.25L155 -4.25Q155.33 -4.25 155.6 -4.09Q155.86 -3.94 156.02 -3.67Q156.18 -3.41 156.18 -3.08L156.18 -3.08Q156.18 -2.76 156.02 -2.49Q155.86 -2.22 155.6 -2.06Q155.33 -1.91 155 -1.91ZM176.52 0L171.48 0Q171.48 -0.79 171.72 -1.41Q171.95 -2.03 172.53 -2.57Q173.11 -3.12 174.15 -3.67L174.15 -3.67Q174.59 -3.9 174.88 -4.11Q175.16 -4.31 175.29 -4.55Q175.42 -4.8 175.42 -5.14L175.42 -5.14Q175.42 -5.65 175.1 -5.96Q174.78 -6.28 174.16 -6.28L174.16 -6.28Q173.48 -6.28 173.1 -5.92Q172.71 -5.56 172.61 -4.89L172.61 -4.89L171.52 -4.96Q171.63 -6.01 172.31 -6.63Q172.99 -7.26 174.16 -7.26L174.16 -7.26Q175.29 -7.26 175.9 -6.68Q176.51 -6.11 176.51 -5.18L176.51 -5.18Q176.51 -4.63 176.33 -4.24Q176.15 -3.84 175.73 -3.49Q175.31 -3.15 174.58 -2.76L174.58 -2.76Q173.66 -2.27 173.21 -1.81Q172.76 -1.35 172.73 -0.99L172.73 -0.99L176.52 -0.99L176.52 0ZM183.5 0.16L183.5 0.16Q182.72 0.16 182.16 -0.29Q181.59 -0.74 181.29 -1.57Q180.98 -2.4 180.98 -3.54L180.98 -3.54Q180.98 -4.69 181.29 -5.52Q181.59 -6.36 182.16 -6.81Q182.72 -7.26 183.5 -7.26L183.5 -7.26Q184.28 -7.26 184.85 -6.81Q185.41 -6.36 185.72 -5.52Q186.02 -4.69 186.02 -3.54L186.02 -3.54Q186.02 -2.4 185.72 -1.57Q185.41 -0.74 184.85 -0.29Q184.28 0.16 183.5 0.16ZM182.07 -3.54L182.07 -3.54Q182.07 -2.65 182.26 -2.02L182.26 -2.02L184.34 -5.87Q184 -6.28 183.5 -6.28L183.5 -6.28Q182.83 -6.28 182.45 -5.56Q182.07 -4.84 182.07 -3.54ZM183.5 -0.82L183.5 -0.82Q184.17 -0.82 184.55 -1.54Q184.93 -2.26 184.93 -3.54L184.93 -3.54Q184.93 -4.44 184.74 -5.07L184.74 -5.07L182.65 -1.23Q183 -0.82 183.5 -0.82ZM195.52 0L190.48 0Q190.48 -0.79 190.72 -1.41Q190.95 -2.03 191.53 -2.57Q192.11 -3.12 193.15 -3.67L193.15 -3.67Q193.59 -3.9 193.88 -4.11Q194.16 -4.31 194.29 -4.55Q194.42 -4.8 194.42 -5.14L194.42 -5.14Q194.42 -5.65 194.1 -5.96Q193.78 -6.28 193.16 -6.28L193.16 -6.28Q192.48 -6.28 192.1 -5.92Q191.71 -5.56 191.61 -4.89L191.61 -4.89L190.52 -4.96Q190.63 -6.01 191.31 -6.63Q191.99 -7.26 193.16 -7.26L193.16 -7.26Q194.29 -7.26 194.9 -6.68Q195.51 -6.11 195.51 -5.18L195.51 -5.18Q195.51 -4.63 195.33 -4.24Q195.15 -3.84 194.73 -3.49Q194.31 -3.15 193.58 -2.76L193.58 -2.76Q192.66 -2.27 192.21 -1.81Q191.76 -1.35 191.73 -0.99L191.73 -0.99L195.52 -0.99L195.52 0ZM202.52 0.16L202.52 0.16Q201.29 0.16 200.63 -0.66Q199.96 -1.49 199.96 -3.02L199.96 -3.02Q199.96 -3.9 200.11 -4.67Q200.26 -5.44 200.59 -6.02Q200.92 -6.6 201.47 -6.93Q202.01 -7.26 202.79 -7.26L202.79 -7.26Q203.77 -7.26 204.3 -6.78Q204.83 -6.3 205.03 -5.55L205.03 -5.55L203.95 -5.46Q203.85 -5.83 203.59 -6.05Q203.32 -6.28 202.79 -6.28L202.79 -6.28Q202.07 -6.28 201.62 -5.73Q201.17 -5.18 201.06 -4.04L201.06 -4.04L201.06 -4.02Q201.32 -4.35 201.74 -4.57Q202.16 -4.78 202.72 -4.78L202.72 -4.78Q203.43 -4.78 203.95 -4.48Q204.47 -4.18 204.76 -3.64Q205.04 -3.1 205.04 -2.38L205.04 -2.38Q205.04 -1.59 204.73 -1.02Q204.41 -0.46 203.84 -0.15Q203.27 0.16 202.52 0.16ZM202.52 -0.83L202.52 -0.83Q203.18 -0.83 203.57 -1.23Q203.95 -1.63 203.95 -2.36L203.95 -2.36Q203.95 -3.04 203.59 -3.43Q203.22 -3.83 202.6 -3.83L202.6 -3.83Q201.93 -3.83 201.5 -3.43Q201.07 -3.03 201.07 -2.36L201.07 -2.36Q201.07 -1.7 201.46 -1.27Q201.85 -0.83 202.52 -0.83Z" transform="translate(401.25, 1074)" fill="#525252"/>
</svg>
